<?xml version="1.0" encoding="utf-8"?><!DOCTYPE svg PUBLIC "-//W3C//DTD SVG 1.1//EN" "http://www.w3.org/Graphics/SVG/1.1/DTD/svg11.dtd"><svg xmlns="http://www.w3.org/2000/svg" xmlns:xlink="http://www.w3.org/1999/xlink"><symbol viewBox="-105.24 -105.24 1052.38 684.78" id="arrow" xmlns="http://www.w3.org/2000/svg"><path d="M842.4 31.6L813.1 1.2 421.9 412.3 29.5 0 .3 31l419.9 441 .5-.6 1.8 1.8z"/></symbol><symbol viewBox="-49.45 -49.45 494.5 176.5" id="logo" xmlns="http://www.w3.org/2000/svg"><g fill="#093567"><path d="M117.2 35.6c0-1.6-.4-2.8-1.2-3.6-.8-.8-2.3-1.7-4.4-2.5-3.9-1.5-6.7-3.2-8.4-5.2-1.7-2-2.6-4.3-2.6-7.1 0-3.3 1.2-5.9 3.5-7.9s5.3-3 8.9-3c2.4 0 4.5.5 6.4 1.5 1.9 1 3.3 2.4 4.3 4.3 1 1.8 1.5 3.9 1.5 6.3h-7.8c0-1.8-.4-3.2-1.2-4.2-.8-1-1.9-1.4-3.4-1.4-1.4 0-2.4.4-3.2 1.2-.8.8-1.2 1.9-1.2 3.3 0 1.1.4 2 1.3 2.9.9.9 2.4 1.8 4.6 2.7 3.8 1.4 6.6 3.1 8.3 5.1 1.7 2 2.6 4.5 2.6 7.6 0 3.4-1.1 6-3.2 8-2.2 1.9-5.1 2.9-8.8 2.9-2.5 0-4.8-.5-6.9-1.6-2.1-1-3.7-2.5-4.9-4.4-1.2-1.9-1.8-4.2-1.8-6.8h7.9c0 2.2.4 3.9 1.3 4.9.9 1 2.3 1.5 4.3 1.5 2.8-.1 4.1-1.6 4.1-4.5zM143.8 45.8c-.2-.4-.4-1.2-.6-2.2-1.4 1.9-3.2 2.8-5.5 2.8-2.4 0-4.4-.8-6-2.4-1.6-1.6-2.4-3.7-2.4-6.2 0-3 1-5.4 2.9-7 1.9-1.7 4.7-2.5 8.4-2.5h2.3V26c0-1.3-.2-2.2-.7-2.8-.4-.5-1.1-.8-2-.8-1.9 0-2.8 1.1-2.8 3.3h-7.6c0-2.7 1-4.9 3-6.6 2-1.7 4.5-2.6 7.6-2.6 3.2 0 5.6.8 7.4 2.5 1.7 1.7 2.6 4 2.6 7.1v13.6c0 2.5.4 4.5 1.1 5.9v.5h-7.7zm-4.5-5.4c.8 0 1.6-.2 2.1-.5.6-.3 1-.7 1.3-1.2v-6h-1.8c-1.3 0-2.3.4-3 1.2-.7.8-1.1 1.9-1.1 3.3 0 2.2.8 3.2 2.5 3.2zM162.7 16.9l.2 2.9c1.7-2.3 4-3.4 6.7-3.4 5 0 7.5 3.5 7.7 10.5v19h-7.6V27.4c0-1.6-.2-2.8-.7-3.6-.5-.7-1.4-1.1-2.6-1.1-1.4 0-2.4.7-3.2 2.1v21h-7.6v-29h7.1zM191.6 9.7v7.1h3.9v5.7h-3.9v14.4c0 1.1.2 1.9.5 2.4.3.4.9.6 1.8.6.7 0 1.3-.1 1.8-.2l-.1 5.9c-1.3.5-2.7.7-4.2.7-4.9 0-7.4-2.8-7.4-8.4V22.5h-3.3v-5.7h3.3V9.7h7.6zM211.3 46.4c-3.9 0-6.9-1.2-9.1-3.5-2.2-2.3-3.3-5.6-3.3-10v-2.3c0-4.6 1-8.1 3-10.6s4.9-3.7 8.6-3.7c3.6 0 6.4 1.2 8.2 3.5 1.8 2.3 2.8 5.8 2.8 10.3v3.7h-15.1c.1 2.2.6 3.8 1.4 4.8.8 1 2.1 1.5 3.9 1.5 2.5 0 4.6-.9 6.3-2.7l3 4.6c-.9 1.3-2.3 2.3-4 3.1-1.7.9-3.6 1.3-5.7 1.3zm-4.7-17.8h7.6v-.7c0-1.7-.3-3.1-.9-4-.5-.9-1.5-1.4-2.8-1.4s-2.3.5-2.9 1.4c-.6 1.1-.9 2.6-1 4.7zM236.3 40.1c2.2 0 3.3-1.4 3.3-4.3h7.1c0 3.2-1 5.7-2.9 7.7-1.9 1.9-4.4 2.9-7.4 2.9-3.7 0-6.6-1.2-8.5-3.5-2-2.3-3-5.7-3-10.3v-2.3c0-4.6 1-8 2.9-10.4 1.9-2.4 4.8-3.6 8.6-3.6 3.2 0 5.7 1 7.5 3 1.8 2 2.8 4.8 2.8 8.4h-7.1c0-1.6-.3-2.9-.8-3.8-.5-.9-1.4-1.3-2.6-1.3-1.3 0-2.3.5-2.8 1.4-.6.9-.9 2.8-.9 5.5v3c0 2.4.1 4 .3 5 .2.9.6 1.6 1.2 2.1.6.3 1.4.5 2.3.5zM258.5 19.4c1.6-2.1 3.7-3.1 6-3.1 2.6 0 4.6.9 6 2.8 1.4 1.9 2.1 4.6 2.1 8.3v18.4H265V27.5c0-1.7-.3-2.9-.8-3.7-.5-.8-1.4-1.1-2.6-1.1-1.4 0-2.4.6-3.2 1.9v21.3h-7.6V4.7h7.6v14.7zM290.9 38.1c0-.6-.3-1.2-.9-1.8-.6-.5-2-1.3-4.1-2.2-3.1-1.3-5.3-2.6-6.4-3.9-1.2-1.4-1.8-3-1.8-5.1 0-2.5.9-4.6 2.7-6.3 1.8-1.7 4.3-2.5 7.3-2.5 3.2 0 5.7.8 7.6 2.5 1.9 1.6 2.9 3.8 2.9 6.6h-7.6c0-2.4-1-3.5-2.9-3.5-.8 0-1.5.3-2 .7-.5.5-.8 1.2-.8 2.1 0 .6.3 1.2.9 1.7.6.5 1.9 1.2 4 2.1 3.1 1.1 5.3 2.4 6.5 3.8 1.3 1.4 1.9 3.2 1.9 5.4 0 2.6-1 4.7-2.9 6.2-1.9 1.6-4.5 2.4-7.7 2.4-2.1 0-4-.4-5.6-1.2-1.6-.8-2.9-2-3.8-3.5-.9-1.5-1.4-3.1-1.4-4.8h7.2c0 1.3.3 2.3.9 3 .6.7 1.5 1 2.9 1 2.1 0 3.1-.9 3.1-2.7zM310.4 19.4c1.6-2.1 3.7-3.1 6-3.1 2.6 0 4.6.9 6 2.8 1.4 1.9 2.1 4.6 2.1 8.3v18.4h-7.6V27.5c0-1.7-.3-2.9-.8-3.7-.5-.8-1.4-1.1-2.6-1.1-1.4 0-2.4.6-3.2 1.9v21.3h-7.6V4.7h7.6v14.7zM343.7 45.8c-.2-.4-.4-1.2-.6-2.2-1.4 1.9-3.2 2.8-5.5 2.8-2.4 0-4.4-.8-6-2.4-1.6-1.6-2.4-3.7-2.4-6.2 0-3 1-5.4 2.9-7 1.9-1.7 4.7-2.5 8.4-2.5h2.3V26c0-1.3-.2-2.2-.7-2.8-.4-.5-1.1-.8-2-.8-1.9 0-2.8 1.1-2.8 3.3h-7.6c0-2.7 1-4.9 3-6.6 2-1.7 4.5-2.6 7.6-2.6 3.2 0 5.6.8 7.4 2.5 1.7 1.7 2.6 4 2.6 7.1v13.6c0 2.5.4 4.5 1.1 5.9v.5h-7.7zm-4.5-5.4c.8 0 1.6-.2 2.1-.5.6-.3 1-.7 1.3-1.2v-6h-1.8c-1.3 0-2.3.4-3 1.2-.7.8-1.1 1.9-1.1 3.3 0 2.2.9 3.2 2.5 3.2zM370 24.2l-2.5-.2c-2.1 0-3.5.9-4.2 2.7v19.1h-7.6v-29h7.1l.2 3.1c1.2-2.4 2.8-3.7 5-3.7.9 0 1.6.1 2.1.3l-.1 7.7zM386.9 45.8c-.2-.4-.4-1.2-.6-2.2-1.4 1.9-3.2 2.8-5.5 2.8-2.4 0-4.4-.8-6-2.4-1.6-1.6-2.4-3.7-2.4-6.2 0-3 1-5.4 2.9-7 1.9-1.7 4.7-2.5 8.4-2.5h2.3V26c0-1.3-.2-2.2-.7-2.8-.4-.5-1.1-.8-2-.8-1.9 0-2.8 1.1-2.8 3.3h-7.6c0-2.7 1-4.9 3-6.6 2-1.7 4.5-2.6 7.6-2.6 3.2 0 5.6.8 7.4 2.5 1.7 1.7 2.6 4 2.6 7.1v13.6c0 2.5.4 4.5 1.1 5.9v.5h-7.7zm-4.5-5.4c.8 0 1.6-.2 2.1-.5.6-.3 1-.7 1.3-1.2v-6H384c-1.3 0-2.3.4-3 1.2-.7.8-1.1 1.9-1.1 3.3 0 2.2.8 3.2 2.5 3.2z"/></g><g fill="#093567"><path d="M104.8 58.7l3.2 10.2 3.2-10.2h2v12.4h-1.6v-4.8l.1-4.9-3.3 9.7h-1.2l-3.2-9.7.1 4.8V71h-1.6V58.7h2.3zM125.3 58.7h1.6v12.4h-1.6v-9.6l-4.8 9.6h-1.6V58.7h1.6v9.6l4.8-9.6zM134 66.2v4.9h-1.6V58.7h4c1.2 0 2.1.3 2.7 1 .7.7 1 1.6 1 2.8 0 1.2-.3 2.1-.9 2.8-.6.6-1.5 1-2.7 1H134zm0-1.3h2.4c.7 0 1.2-.2 1.6-.6.4-.4.6-1 .6-1.8 0-.7-.2-1.3-.6-1.8-.4-.5-.9-.7-1.6-.7H134v4.9zM159.9 71.1h-1.6v-5.8h-5v5.8h-1.6V58.7h1.6V64h5v-5.4h1.6v12.5zM171.4 67.8h-4.2l-1 3.3h-1.6l4-12.4h1.3l4 12.4h-1.6l-.9-3.3zm-3.8-1.3h3.4l-1.7-5.7-1.7 5.7zM186.8 69.8h1.5v4.4h-1.6v-3.1h-7.4v3.1h-1.6v-4.4h.9c.4-.5.7-1.3 1-2.3.3-1 .4-2.2.5-3.4l.2-5.4h6.4v11.1zm-6.5 0h4.9V60h-3.3l-.2 4c-.1 1.3-.2 2.5-.5 3.4s-.5 1.8-.9 2.4zM198.9 65.3h-4.4v4.4h5.1V71H193V58.7h6.6V60h-5v4h4.4v1.3zM212 65.4h-1.1v5.7h-1.6v-5.7h-1.2l-2.8 5.7h-1.9l3.4-6.6-3.2-5.8h1.8l2.6 5.4h1.2v-5.4h1.6v5.4h1.1l2.6-5.4h1.8l-3.2 5.8 3.4 6.6h-1.9l-2.6-5.7zM229.3 71.1h-1.6v-5.8h-5v5.8h-1.6V58.7h1.6V64h5v-5.4h1.6v12.5zM242.9 66c0 1.7-.4 3-1.1 3.9-.7.9-1.8 1.4-3.1 1.4s-2.3-.4-3-1.3c-.7-.9-1.1-2.2-1.2-3.8v-2.3c0-1.7.4-3 1.1-3.9.7-.9 1.8-1.4 3.1-1.4s2.3.5 3.1 1.4c.7.9 1.1 2.2 1.1 3.9V66zm-1.6-2.2c0-1.3-.2-2.3-.6-2.9-.4-.6-1.1-1-2-1-.9 0-1.5.3-2 1-.4.6-.7 1.6-.7 2.9V66c0 1.3.2 2.2.7 2.9.4.7 1.1 1 2 1s1.5-.3 1.9-.9c.4-.6.6-1.6.7-2.8v-2.4zM254.6 58.7h1.6v12.4h-1.6v-9.6l-4.8 9.6h-1.6V58.7h1.6v9.6l4.8-9.6zm.1-3.1c0 .7-.2 1.2-.7 1.7-.5.4-1.1.6-1.9.6s-1.4-.2-1.9-.6c-.5-.4-.7-1-.7-1.7h1.3c0 .4.1.7.3.9.2.2.5.3.9.3s.7-.1.9-.3c.2-.2.3-.5.3-.9h1.5zM276.3 67.1c-.1 1.3-.4 2.4-1.1 3.1-.7.7-1.6 1.1-2.9 1.1-1.2 0-2.2-.5-3-1.4-.7-.9-1.1-2.2-1.1-3.9v-2.3c0-1.6.4-2.9 1.1-3.8.8-.9 1.8-1.4 3.1-1.4 1.2 0 2.1.4 2.8 1.1.7.7 1 1.7 1.1 3.1h-1.6c-.1-1-.3-1.7-.6-2.2-.4-.4-.9-.6-1.6-.6-.8 0-1.5.3-2 1s-.7 1.6-.7 2.9V66c0 1.3.2 2.2.6 2.9.4.7 1 1 1.9 1 .8 0 1.4-.2 1.8-.6.4-.4.6-1.1.7-2.2h1.5zM287.1 67.8h-4.2l-1 3.3h-1.6l4-12.4h1.3l4 12.4H288l-.9-3.3zm-3.8-1.3h3.4l-1.7-5.7-1.7 5.7zM302.3 71.1h-1.6v-5.8h-5v5.8h-1.6V58.7h1.6V64h5v-5.4h1.6v12.5zM314.8 60h-3.3v11.1H310V60h-3.3v-1.3h8.1V60zM325.4 65.3H321v4.4h5.1V71h-6.7V58.7h6.6V60h-5v4h4.4v1.3zM334.5 63.4l2.3-4.8h1.8l-3.2 6.2 3.3 6.3h-1.9l-2.4-4.9-2.4 4.9h-1.9l3.3-6.3-3.3-6.2h1.8l2.6 4.8zM351.6 71.1H350v-5.8h-5v5.8h-1.6V58.7h1.6V64h5v-5.4h1.6v12.5zM363.6 58.7h1.6v12.4h-1.6v-9.6l-4.8 9.6h-1.6V58.7h1.6v9.6l4.8-9.6zM373.5 65.5h-1.2v5.6h-1.6V58.7h1.6v5.5h1l3.5-5.5h1.9l-3.9 6 4.2 6.4h-1.9l-3.6-5.6zM389.8 58.7h1.6v12.4h-1.6v-9.6l-4.8 9.6h-1.6V58.7h1.6v9.6l4.8-9.6z"/></g><path fill="#48A4DB" d="M40.5 49.2v-.1-.8-.1-.5-.2-.2c0-.3-.1-.5-.1-.8 0-.3-.1-.7-.2-1v-.1c0-.1 0-.2-.1-.3 0-.2-.1-.4-.1-.5v-.1c0-.1-.1-.2-.1-.3 0-.2-.1-.3-.1-.4v-.1c0-.1-.1-.2-.1-.3 0-.1-.1-.3-.1-.4v-.1c0-.1-.1-.2-.1-.3-.1-.1-.1-.2-.2-.4 0 0 0-.1-.1-.1 0-.1-.1-.2-.1-.2-.1-.1-.1-.2-.2-.3 0 0 0-.1-.1-.1 0-.1-.1-.2-.2-.2-.1-.1-.1-.2-.2-.3 0 0 0-.1-.1-.1-.1-.1-.1-.2-.2-.2-.1-.1-.1-.2-.2-.3 0 0 0-.1-.1-.1l-.2-.2c-.1-.1-.2-.2-.2-.3 0 0 0-.1-.1-.1l-.2-.2-.3-.3s0-.1-.1-.1l-.2-.2-.3-.3-.1-.1c-.1-.1-.2-.2-.4-.3l-4.1-3.1c.2.1.3.2.5.4l.3.3c.1.1.2.2.3.2l.3.3c.1.1.2.2.2.3.1.1.2.2.2.3.1.1.2.2.2.3.1.1.1.2.2.3.1.1.2.2.2.3.1.1.1.2.2.3.1.1.1.2.2.3.1.1.1.2.2.3.1.1.1.2.2.4.1.1.1.2.2.4.1.1.1.2.2.4.1.1.1.3.1.4 0 .1.1.3.1.4 0 .1.1.3.1.4 0 .1.1.3.1.4 0 .2.1.4.1.5 0 .1.1.2.1.3v.2c-.1-.1-.1-.2-.2-.3l-.1-.1c0-.1-.1-.1-.2-.2s-.1-.2-.2-.3l-.1-.1-.2-.2c-.1-.1-.2-.2-.2-.3l-.1-.1s-.1-.1-.2-.1l-.3-.3-.1-.1-.3-.3-4.1-3.1c-.1-.1-.2-.2-.3-.2-.1-.1-.2-.2-.3-.2-.1-.1-.2-.1-.3-.1-.1-.1-.3-.2-.4-.3-.1-.1-.3-.1-.4-.2-.1-.1-.2-.1-.3-.2-.3-.1-.5-.2-.8-.3-.1 0-.3-.1-.4-.1h-.1c-.1 0-.2 0-.3-.1h-5.2c-.1 0-.2 0-.3.1-.1 0-.2 0-.2.1-.1 0-.2 0-.3.1-.1 0-.2 0-.3.1-.1 0-.2.1-.3.1-.1 0-.2.1-.3.1-.1 0-.1 0-.2.1-.1 0-.1 0-.2.1-.3.1-.5.2-.8.3-.1 0-.2.1-.2.1-.1 0-.2.1-.3.1-.1 0-.1.1-.2.1s-.1.1-.2.1l-.6.3s-.1 0-.1.1c0 0-.1 0-.1.1-.3.1-.5.3-.8.4 0 0-.1 0-.1.1-.1 0-.1.1-.2.1-.2.1-.4.2-.5.3-.1 0-.1.1-.2.1s-.1.1-.2.1c-.2.1-.3.2-.5.3-.1 0-.1.1-.2.1l-.1.1c-.1.1-.3.2-.4.3-.1.1-.2.1-.2.2l-.1.1c-.1.1-.3.2-.4.3-.1.1-.2.1-.3.2l-.1.1c-.1.1-.2.2-.4.3-.1.1-.2.1-.3.2l-.1.1-.3.3c-.1.1-.2.1-.3.2l-.1.1-.3.3-.2.2-.1.1-.3.3-.2.2-.1.1c-.1.1-.2.3-.3.4-.1.1-.2.2-.2.3 0 0 0 .1-.1.1.5.4.3.5.2.7-.1.1-.1.2-.2.3v.1c-.1.2-.3.4-.4.5-.1 0-.2.1-.2.1-.2.3-.4.6-.6.8 0 .1-.1.1-.1.2-.2.2-.3.5-.5.7l-.1.1c0 .1-.1.1-.1.2-.2.3-.3.5-.5.8 0 .1-.1.1-.1.2 0 0 0 .1-.1.1 0 .1-.1.2-.1.3-.1.2-.2.3-.3.5 0 .1-.1.2-.1.3 0 .1-.1.1-.1.2-.2 0-.2.1-.2.2-.1.2-.2.3-.2.5-.1.1-.1.3-.2.4-.1.2-.1.3-.2.5 0 .1-.1.1-.1.2s-.1.1-.1.2c-.1.1-.2.2-.2.4-.1.2-.1.3-.2.5 0 .1-.1.3-.1.4-.1.2-.1.3-.2.5 0 .1-.1.3-.1.4 0 .2-.1.3-.1.5 0 .1-.1.3-.1.4 0 .2-.1.3-.1.5 0 .1-.1.3-.1.4 0 .2-.1.3-.1.5 0 .1-.1.3-.1.4 0 .2-.1.3-.1.5 0 .1 0 .2-.1.4 0 .2 0 .3-.1.5v.3c0 .3-.1.5-.1.8V61.6c0 .2 0 .5.1.7 0 .3.1.6.1.8v.1c0 .1 0 .2.1.2 0 .2.1.3.1.5v.1c0 .1 0 .2.1.2 0-.2.1-.1.1 0v.1c0 .1.1.2.1.2 0 .1.1.2.1.3v.1c0 .1.1.1.1.2s.1.2.1.3v.1c0 .1.1.1.1.2.1.1.1.2.2.3v.1c0 .1.1.1.1.2.1.1.1.2.2.3v.1c0 .1.1.1.1.2.1.1.1.2.2.3l.1.1c0 .1.1.1.2.2s.1.2.2.3l.1.1c.2 0 .3.1.3.1.1.1.2.2.2.3l.1.1s.1.1.2.1l.3.3.1.1.3.3 4.1 3.1c.8.6 1.6 1 2.6 1.3H9.5c-.1 0-.2 0-.3-.1H9c-.1 0-.2 0-.3-.1h-.2c-.2 0-.3-.1-.5-.1-1.2-.4-2.4-.9-3.4-1.7l4.1 3.1c1 .7 2.1 1.3 3.4 1.7.2 0 .3.1.5.1h.2c.1 0 .2.1.3.1h.2c.1 0 .2 0 .3.1H18.3c.1 0 .2 0 .3-.1.1 0 .2 0 .3-.1.1 0 .2 0 .3-.1.1 0 .2 0 .3-.1.1 0 .2 0 .3-.1.1 0 .2-.1.3-.1.1 0 .2-.1.3-.1.1 0 .2-.1.3-.1.1 0 .1 0 .2-.1.1 0 .2-.1.2-.1l.9-.3c.1 0 .2-.1.3-.1.1 0 .3-.1.4-.1.1 0 .2-.1.2-.1.1 0 .2-.1.2-.1.2-.1.5-.2.7-.3 0 0 .1 0 .1-.1.3-.1.5-.3.7-.4.1 0 .1-.1.2-.1s.1-.1.2-.1.2-.1.2-.1c.2-.1.4-.2.6-.4.1 0 .1-.1.2-.1s.1-.1.2-.1c.2-.1.4-.2.5-.4.1-.1.2-.1.2-.2l.1-.1c.2-.1.3-.2.5-.3.1-.1.2-.1.3-.2l.1-.1c.1-.1.3-.2.4-.3.1-.1.2-.1.3-.2l.1-.1c.1-.1.3-.2.4-.4.1-.1.2-.2.3-.2l.1-.1c.1-.1.3-.2.4-.4l.3-.3.1-.1c.1-.1.3-.2.4-.4l.3-.3.1-.1.4-.4.3-.3.1-.1.4-.4.3-.3.1-.1c.1-.2.3-.3.4-.5.1-.1.2-.2.2-.3l.1-.1c.2-.2.3-.4.5-.6.1-.1.1-.2.2-.2.2-.3.5-.6.7-1 0-.1.1-.1.1-.2.2-.3.4-.5.6-.8l.1-.1c0-.1.1-.1.1-.2l.6-.9c0-.1.1-.1.1-.2 0 0 0-.1.1-.1.1-.1.1-.2.2-.3l.3-.6c.1-.1.1-.2.2-.3 0-.1.1-.1.1-.2s.1-.2.1-.3l.3-.6c.1-.2.1-.3.2-.5l.3-.6c0-.1.1-.2.1-.2 0-.1.1-.2.1-.2.1-.1.1-.3.2-.4.1-.2.1-.3.2-.5.1-.1.1-.3.2-.4.1-.2.1-.3.2-.5.1-.1.1-.3.1-.4.1-.2.1-.4.2-.5 0-.1.1-.3.1-.4.1-.2.1-.4.1-.5 0-.1.1-.3.1-.4 0-.2.1-.4.1-.5 0-.1.1-.3.1-.4 0-.2.1-.4.1-.6 0-.1.1-.3.1-.4 0-.2.1-.4.1-.6 0-.1 0-.3.1-.4v-.1c0-.3.1-.6.1-.9v-.9-.5zM16.4 70.4c-.1 0-.2.1-.3.1-.1 0-.2 0-.3.1-.1 0-.2 0-.3.1-.1 0-.2 0-.2.1-.1 0-.2 0-.3.1H9.8c-.1 0-.2 0-.3-.1h-.1c-.1 0-.3-.1-.4-.1-.2-.1-.5-.1-.7-.2l-.2-.2c-.1-.1-.1-.2-.2-.3-.1-.1-.1-.2-.2-.3.3-.3.3-.4.2-.5-.1-.1-.1-.2-.2-.3-.1-.1-.1-.2-.2-.3 0-.1-.1-.2-.1-.3 0-.1-.1-.2-.1-.3 0-.1-.1-.2-.1-.3 0-.1-.1-.2-.1-.3-.1-.2-.1-.4-.2-.5 0-.1-.1-.2-.1-.3 0-.2-.1-.3-.1-.5 0-.1 0-.2-.1-.3-.1-.3-.1-.6-.1-.8 0-.2-.1-.5-.1-.7v-.2-.6-.1-.7-1c0-.3 0-.6.1-.8v-.3c0-.2 0-.3.1-.5 0-.1 0-.2.1-.4 0-.2.1-.3.1-.5 0-.1.1-.3.1-.4 0-.2.1-.3.1-.5v-.5c0-.2.1-.3.1-.5 0-.1.1-.3.1-.4 0-.2.1-.3.1-.5 0-.1.1-.3.1-.4.1-.2.1-.3.2-.5 0-.1.1-.3.1-.4.2 0 .3-.1.3-.3.1-.1.1-.3.2-.4.1-.1.1-.3.2-.4.1-.2.1-.3.2-.5.1-.1.1-.3.2-.4.1-.1.1-.3.2-.5.1-.1.1-.3.2-.4 0-.1.1-.2.1-.3.1-.2.2-.3.3-.5 0-.1.1-.2.1-.3.1-.1.1-.2.2-.3.2-.3.3-.5.5-.8.1-.1.1-.2.2-.3.2-.2.3-.5.5-.7 0-.1.1-.1.1-.2.2-.3.4-.6.6-.8.1-.1.1-.2.2-.2.1-.2.3-.4.4-.5l.3-.3c.1-.1.2-.3.4-.4l.3-.3c.1-.1.2-.3.4-.4l.3-.3.3-.3.3-.3.3-.3.3-.3.3-.3.3-.3c.1-.1.2-.2.4-.3.1-.1.2-.2.4-.3.1-.1.3-.2.4-.3l.3-.3c.1-.1.3-.2.4-.3.1-.1.2-.2.3-.2.2-.1.3-.2.5-.3.1-.1.2-.1.3-.2.2-.1.4-.2.5-.3.1-.1.2-.1.3-.2.3-.1.5-.3.8-.4.1 0 .1-.1.2-.1 0 0 .1 0 .1-.1l.6-.3c.1 0 .1-.1.2-.1.2-.1.4-.1.5-.2.1 0 .2-.1.2-.1.2-.1.5-.2.7-.3.1 0 .3-.1.4-.1.1 0 .2-.1.3-.1.1 0 .2-.1.3-.1.1 0 .2 0 .3-.1.1 0 .2 0 .3-.1.1 0 .2 0 .2-.1.1 0 .2 0 .3-.1h5.2c.1 0 .2 0 .3.1h.1c.1 0 .3.1.4.1.2.1.5.2.7.2l.2.2c.1.1.1.2.2.3.1.1.1.2.2.3.1.1.1.2.2.3.1.1.1.2.2.3.1.1.1.2.2.3 0 .1.1.2.1.3 0 .1.1.2.1.3 0 .1.1.2.1.3 0 .1.1.2.1.3 0 .1.1.3.1.4 0 .1.1.2.1.3 0 .2.1.3.1.5 0 .1 0 .2.1.3.1.3.1.6.1.8 0 .2.1.5.1.7v2.6c0 .3 0 .6-.1.8v.3c0 .2 0 .3-.1.5 0 .1 0 .2-.1.4 0 .2-.1.3-.1.5 0 .1-.1.3-.1.4 0 .2-.1.3-.1.5 0 .1-.1.3-.1.4 0 .2-.1.3-.1.5 0 .1-.1.3-.1.4 0 .2-.1.3-.1.5 0 .1-.1.3-.1.4-.1.2-.1.3-.2.5 0 .1-.1.3-.1.4-.1.2-.1.3-.2.5-.1.1-.1.3-.2.4-.1.1-.1.3-.2.4-.1.2-.1.3-.2.5-.1.1-.1.3-.2.4-.1.2-.2.3-.2.5-.1.1-.1.3-.2.4 0 .1-.1.2-.1.3-.1.2-.2.3-.3.5 0 .1-.1.2-.1.3-.1.1-.1.2-.2.3-.2.3-.3.5-.5.8-.1.1-.1.2-.2.3-.2.2-.3.5-.5.7 0 .1-.1.1-.1.2-.2.3-.4.6-.6.8-.1.1-.1.2-.2.2-.1.2-.3.4-.4.5l-.3.3c-.1.1-.2.3-.4.4l-.3.3c-.1.1-.2.3-.3.4l-.3.3-.3.3-.3.3-.3.3-.3.3-.3.3-.3.3c-.1.1-.2.2-.4.3-.1.1-.2.2-.4.3-.1.1-.3.2-.4.3l-.3.3c-.1.1-.3.2-.4.3-.1.1-.2.2-.3.2l.2-1.8.6-.3c.1-.1.2-.1.3-.2.1 0 .1-.1.2-.1.1-.1.3-.2.4-.3 0 0 .1 0 .1-.1.1-.1.2-.1.3-.2l.1-.1.1-.1s.1 0 .1-.1c.1-.1.2-.2.3-.2l.2-.2.2-.2c.1-.1.2-.1.2-.2l.1-.1c.1-.1.1-.2.2-.2l.1-.1v-.1c.1-.1.1-.2.2-.2l.1-.1v-.1l.1-.1c.1-.1.1-.2.2-.3v-.1s0-.1.1-.1l.1-.1c.1-.1.1-.2.1-.3v-.1c.1-.2.2-.3.2-.5.1-.2.1-.3.2-.5 0-.1 0-.1.1-.2 0-.1.1-.2.1-.4v-.2c0-.1 0-.2.1-.3V59v-.2-.3-.4-.1-.3-.1-.3-.3-.1-.1-.1-.1c0-.1 0-.1-.1-.1 0-.1-.1-.1-.1-.2v-.1s0-.1-.1-.1V56s0-.1-.1-.1c0 0 0-.1-.1-.1l-.1-.1s0-.1-.1-.1v-.1l-.1-.1-.2-.2-.1-.1-4.1-3.1c-.1 0-.1-.1-.2-.1-.4-.3-.9-.5-1.4-.6v-.1-.1s0-.1.1-.1c0-.1.1-.1.1-.2s.1-.1.1-.2.1-.1.1-.2.1-.1.1-.1c.1 0 .1-.1.2-.1s.1-.1.2-.1.1-.1.2-.1.1-.1.2-.1h.1s.1 0 .1-.1c0 0 .1 0 .1-.1h.1c.1 0 .2-.1.2-.1l2.3 1.7 1.9-.5.6-4.3-4.1-3.1c-.3 0-.5 0-.8.1l-2.8-2.1-1.7.5-.3 2.6c-.2.1-.4.1-.5.2l-.6.3c-.2.1-.3.2-.5.3h-.1c-.1.1-.2.1-.3.2 0 0-.1 0-.1.1 0 0-.1 0-.1.1-.1 0-.1.1-.2.1-.1.1-.2.1-.2.2h-.1c-.1.1-.2.1-.3.2l-.1.1-.1.1-.1.1c-.1.1-.2.1-.2.2l-.1.1h-.1l-.1.1-.2.2-.1.1-.2.2-.1.1-.2.2c0 .1-.1.1-.1.2-.1.1-.1.2-.2.3 0 0 0 .1-.1.1 0 0 0 .1-.1.1 0 0 0 .1-.1.1 0 .1-.1.1-.1.2s-.1.1-.1.2v.1c0 .1-.1.2-.1.3v.1c-.1.2-.1.3-.2.5v.1c0 .1-.1.2-.1.4V52.9c0 .1 0 .2.1.2 0 .1 0 .1.1.2V53.6c0 .1.1.1.1.2 0 0 0 .1.1.1l.1.1.2.2.1.1s.1 0 .1.1l.1.1 1.2.9 2.9 2.2c.5.4 1 .6 1.6.8 0 .1-.1.2-.1.3v.2c0 .1-.1.1-.1.2s-.1.1-.1.2-.1.1-.1.2-.1.1-.1.2-.1.1-.2.1-.1.1-.2.1-.1.1-.2.1-.1.1-.2.1h-.1s-.1 0-.1.1c0 0-.1 0-.1.1h-.1c-.1 0-.1 0-.2.1h-.1c-.1 0-.2.1-.3.1-.1 0-.1 0-.2.1h-.1l-1-.7-1.7-1.3-1.8.5-.7 4.5 4.1 3.1c.1 0 .8.2 2.2.1l2.3 1.7.7-.2c-.1.1-.2.1-.3.2-.1.1-.2.1-.3.2-.3.1-.5.3-.8.4-.1 0-.1.1-.2.1 0 0-.1 0-.1.1l-.6.3c-.1 0-.1.1-.2.1-.2.1-.4.1-.5.2-.1 0-.2.1-.2.1-.2.1-.5.2-.7.3-.1 0-.3.1-.4.1.6-.1.5-.1.4 0zm.2-7.9l.1.1.1.1.1.1.3.3c.1 0 .1.1.2.1 0 0 .1 0 .1.1l.5.4-.1.8-1.5-1.1h-.1l.3-.9z"/><path fill="#F9CD1D" d="M27.6 48l.2-1.4-1.4-1.1c-1.1 1.3-2.1 2.5-3.2 3.8l.1-.1 2.3 1.7 1.6-.4.3-2c0-.1-.1-.1-.1-.2.1-.2.1-.3.2-.3z"/><path fill="#56B9E9" d="M34.2 44.3v.3c0 .2.1.5.1.7v2.8c0 .3 0 .6-.1.8v.4c0 .2 0 .3-.1.5v.5c0 .1 0 .3-.1.4 0 .1 0 .2-.1.3v.1c0 .1-.1.3-.1.4 0 .1-.1.2-.1.3v.1c0 .2-.1.3-.1.5 0 .1-.1.2-.1.4s-.1.3-.1.5c0 .1-.1.3-.1.4-.1.2-.1.3-.2.5 0 .1-.1.3-.1.4-.1.2-.1.3-.2.5-.1.1-.1.3-.2.4-.1.1-.1.3-.2.4-.1.2-.1.3-.2.5-.1.1-.1.3-.2.4-.1.2-.2.3-.2.5v.1c-.1.1-.1.2-.2.4 0 .1-.1.2-.1.3-.1.2-.2.3-.3.5l-.1.3c0 .1-.2.3-.2.3-.2.3-.3.5-.5.8 0 0-.1.2-.2.3-.2.2-.3.5-.5.7l-.1.2c-.2.3-.4.6-.6.8l-.1.1-.1.1c-.1.2-.3.4-.4.5l-.2.2-.1.2c-.1.1-.2.3-.3.4-.1.1-.1.2-.2.2l-.1.1-.3.3-.3.3-.1.1-.3.3-.3.3-.3.3-.3.3-.1.1-.3.3c-.1.1-.2.2-.3.2l-.1.1-.3.3c-.1.1-.2.2-.3.2l-.1.1c-.1.1-.2.2-.4.3-.1.1-.2.1-.3.2l-.1.1c-.1.1-.3.2-.4.3-.1.1-.2.2-.3.2l-.5.3.3-2.6.2-.1.6-.3c.1 0 .1-.1.2-.1 0 0 .2-.1.3-.2.1-.1.3-.2.4-.3l.2-.1c.1 0 .1-.1.2-.1l.3-.2c.1-.1.2-.2.3-.2l.2-.2.2-.2c.1-.1.2-.1.2-.2l.2-.2.2-.2.2-.2c.1-.1.1-.2.2-.2l.2-.2c.1-.1.1-.2.2-.3l.2-.3c0-.1.1-.1.1-.2l.1-.1c.1-.2.2-.3.2-.5.1-.2.1-.3.2-.5l.1-.2c0-.1.1-.2.1-.4v-.2c0-.1 0-.2.1-.3V59.3v-.1-.3-.4-.3-.3-.3l-.3-.6-.1-.2s0-.1-.1-.1c0 0-.1-.1-.1-.2l-.1-.1s0-.1-.1-.1l-.1-.2.1-.1-.1-.1-.1-.1s-.1-.1-.2-.1l-.1-.1-4.1-3.1-.1-.1h-.1c-.3-.2-.8-.4-1.3-.6-1.3 1.6-2.7 3.2-4 4.8l1.2.9c.4.3.9.5 1.5.7l.3.1-.1.2c0 .1-.1.2-.1.3 0 0 0 .1-.1.1v.1c0 .1-.1.1-.1.2s-.1.1-.1.2-.1.1-.2.2l-.2.2-.2.2c-.1 0-.1.1-.2.1s-.1.1-.2.1-.1.1-.2.1h-.1s-.1 0-.1.1h-.1s-.1 0-.1.1c-.1 0-.1.1-.2.1h-.1c-.1 0-.2.1-.3.1l-.2.1-.1.2-2.2-1.7c-.8 1-1.6 1.9-2.4 2.9l-.2 1.2 3.9 2.9c.2 0 .6.1 1.4.1H18.4l2.2 1.7.4-.1.2.5c-.1.1-.2.1-.3.2-.1.1-.2.1-.3.2-.3.1-.5.3-.8.4 0 0-.1.1-.2.1l-.1.1-.6.3-.2.1c-.2.1-.4.2-.5.2l-.2.1c-.3.1-.5.2-.8.3-.1 0-.2.1-.3.1 0 0-.2.1-.3.1-.1 0-.2.1-.3.1-.1 0-.2 0-.3.1-.1 0-.2 0-.3.1-.1 0-.2 0-.3.1-.1 0-.2 0-.3.1h-.4-1-.6-1.9-.5-.7c0-.2-.1-.2-.2-.2h-.2c-.1 0-.3-.1-.4-.1h-.1l1.5 1.1c.7.5 1.6 1 2.5 1.3v.3c1.7.9 3.3 1.8 5 2.6.1 0 .2 0 .3-.1.1 0 .2 0 .3-.1.1 0 .2 0 .3-.1.1 0 .2 0 .2-.1.1 0 .2 0 .3-.1.1 0 .2 0 .3-.1.1 0 .2-.1.3-.1.1 0 .2-.1.3-.1l.2-.1.2-.1c.3-.1.6-.2.8-.3.1 0 .4-.2.4-.2.1 0 .2-.1.2-.1s.4-.2.5-.2c.2-.1.5-.2.7-.3l.2-.1c.2-.1.5-.3.7-.4l.4-.2s.1 0 .1-.1l.1-.1c.2-.1.4-.2.6-.4l.2-.1.2-.1c.2-.1.4-.2.5-.4l.1-.1.1-.1.1-.1c.2-.1.3-.2.5-.3l.1-.1.1-.1.1-.1c.1-.1.3-.2.4-.3l.2-.1c.1 0 .1-.1.2-.1l.1-.1c.1-.1.3-.2.4-.3l.2-.1c.1 0 .1-.1.2-.1l.1-.1.3-.3.2-.2c.1 0 .1-.1.2-.1l.1-.1.3-.3.2-.2.2-.2.1-.1.3-.3.2-.2.2-.2.1-.1c.1-.1.2-.2.3-.4l.2-.2c0-.1.1-.1.1-.2l.1-.1.4-.4.1-.2c0-.1.1-.1.1-.2l.1-.1c.2-.2.3-.4.5-.6l.1-.1.1-.1c.2-.3.5-.6.7-.9 0 0 .1-.1.1-.2.2-.3.4-.5.6-.8l.1-.1.1-.2.6-.9.1-.2.2-.4.3-.6c.1-.1.3-.5.3-.5l.1-.3c.1-.2.2-.4.3-.5.1-.1.1-.3.2-.4.1-.2.2-.4.2-.5l.1-.2s0-.1.1-.1v-.1c.1-.1.1-.3.2-.4.1-.2.1-.3.2-.5.1-.1.1-.3.2-.4.1-.2.1-.3.2-.5.1-.1.1-.3.1-.4.1-.2.1-.3.2-.5 0-.1.1-.3.1-.4 0-.2.1-.4.1-.5v-.1c0-.1.1-.2.1-.4s.1-.4.1-.5v-.1c0-.1 0-.2.1-.3 0-.2.1-.3.1-.6v-.1-.3c0-.2 0-.3.1-.5v-.2-.4c0-.3.1-.6.1-.9v-1.2-.2c-.6-.5-1.3-1.1-2-1.6-.9-1-2.2-2-3.6-3z"/><path fill="#67CDF5" d="M37.1 60.7l.1-.3c.1-.2.2-.4.3-.5.1-.1.1-.3.2-.4.1-.2.2-.4.2-.5l.1-.2s0-.1.1-.1v-.1c.1-.1.1-.3.2-.4.1-.2.1-.3.2-.5.1-.1.1-.3.2-.4.1-.2.1-.3.2-.5.1-.1.1-.3.1-.4.1-.2.1-.3.2-.5 0-.1.1-.3.1-.4 0-.2.1-.4.1-.5v-.1c0-.1.1-.2.1-.4s.1-.4.1-.5v-.1c-1.8-1.2-3.7-2.3-5.6-3.3 0 .1 0 .3-.1.4 0 .1 0 .2-.1.3v.1c0 .1-.1.3-.1.4 0 .1-.1.2-.1.3v.1c0 .2-.1.3-.1.5 0 .1-.1.2-.1.4s-.1.3-.1.5c0 .1-.1.3-.1.4-.1.2-.1.3-.2.5 0 .1-.1.3-.1.4-.1.2-.1.3-.2.5-.1.1-.1.3-.2.4-.1.1-.1.3-.2.4-.1.2-.1.3-.2.5-.1.1-.1.3-.2.4-.1.2-.2.3-.2.5v.1c-.1.1-.1.2-.2.4 0 .1-.1.2-.1.3-.1.2-.2.3-.3.5l-.1.3c0 .1-.2.3-.2.3-.2.3-.3.5-.5.8 0 0-.1.2-.2.3-.2.2-.3.5-.5.7l-.1.2c-.2.3-.4.6-.6.8l-.1.1-.1.1c-.1.2-.3.4-.4.5l-.2.2-.1.2c-.1.1-.2.3-.3.4-.1.1-.1.2-.2.2l-.1.1-.3.3-.3.3-.1.1-.3.3-.3.3-.3.3-.3.3-.1.1-.3.3c-.1.1-.2.2-.3.2l-.1.1-.3.3c-.1.1-.2.2-.3.2l-.1.1c-.1.1-.2.2-.4.3-.1.1-.2.1-.3.2l-.1.1c-.1.1-.3.2-.4.3-.1.1-.2.2-.3.2l-.5.3.3-2.6.2-.1.6-.3c.1 0 .1-.1.2-.1 0 0 .2-.1.3-.2.1-.1.3-.2.4-.3l.2-.1c.1 0 .1-.1.2-.1l.3-.2c.1-.1.2-.2.3-.2l.2-.2.2-.2c.1-.1.2-.1.2-.2l.2-.2.2-.2.2-.2c.1-.1.1-.2.2-.2l.2-.2c.1-.1.1-.2.2-.3l.2-.3c0-.1.1-.1.1-.2l.1-.1c.1-.2.2-.3.2-.5.1-.2.1-.3.2-.5l.1-.2c0-.1.1-.2.1-.4v-.2c0-.1 0-.2.1-.3V59.6v-.1-.3-.4-.3-.3-.3l-.2-.9-.1-.2s0-.1-.1-.1c0 0-.1-.1-.1-.2l-.1-.1s0-.1-.1-.1l-.1-.2.1-.1-.1-.1s0-.1-.1-.1c-2.9 3.9-6.3 7.5-10.2 10.5l-.3.2c.2 0 .6.1 1 .1H18.3l2.2 1.7.5-.3.2.5c-.1.1-.2.1-.3.2-.1.1-.2.1-.3.2-.3.1-.5.3-.8.4 0 0-.1.1-.2.1l-.1.1-.6.3-.2.1c-.2.1-.4.2-.5.2l-.2.1s-.1 0-.1.1c2.1 1.3 4.3 2.5 6.6 3.7h.1l.4-.2s.1 0 .1-.1l.1-.1c.2-.1.4-.2.6-.4l.2-.1.2-.1c.2-.1.4-.2.5-.4l.1-.1.1-.1.1-.1c.2-.1.3-.2.5-.3l.1-.1.1-.1.1-.1c.1-.1.3-.2.4-.3l.2-.1c.1 0 .1-.1.2-.1l.1-.1c.1-.1.3-.2.4-.3l.2-.1c.1 0 .1-.1.2-.1l.1-.1.3-.3.2-.2c.1 0 .1-.1.2-.1l.1-.1.3-.3.2-.2.2-.2.1-.1.3-.3.2-.2.2-.2.1-.1c.1-.1.2-.2.3-.4l.2-.2c0-.1.1-.1.1-.2l.1-.1.4-.4.1-.2c0-.1.1-.1.1-.2l.1-.1c.2-.2.3-.4.5-.6l.1-.1.1-.1c.2-.3.5-.6.7-.9 0 0 .1-.1.1-.2.2-.3.4-.5.6-.8l.1-.1.1-.2.6-.9.1-.2.2-.4.3-.6c0-.2.2-.6.2-.6z"/><path fill="#48A4DB" d="M36.4 47.2c-.7 10.7-9.4 22-19.5 25.4-3.3 1.1-6.4 1.2-8.9.4-5.2-1.5-8.4-6.5-8-13.7.7-10.7 9.4-22 19.5-25.4 3.3-1.1 6.4-1.2 8.9-.4 5.3 1.6 8.5 6.6 8 13.7zm-19.3 23c8.8-2.9 16.4-12.8 17-22.2.4-6.2-2.4-10.6-6.9-12-2.2-.7-4.9-.6-7.8.4-8.8 2.9-16.4 12.8-17 22.2-.4 6.2 2.4 10.6 6.9 12 2.2.6 4.9.5 7.8-.4"/><path fill="#3188C8" d="M25.9 65c-2.6 2.5-5.6 4.4-8.7 5.5-1.6.5-3.3.8-4.8.8-1.1 0-2.2-.1-3.2-.4-4.8-1.4-7.6-6.1-7.1-12.3.5-7.7 5.8-15.9 12.6-20.2v-.1c-.1-.5-.2-1-.3-1.4C6.9 41.7 1 50.8.4 59.4c-.5 6.7 2.5 11.9 7.7 13.4 1.1.3 2.3.5 3.5.5 1.7 0 3.5-.3 5.3-.9 3.6-1.2 7-3.5 10-6.4l-1-1z"/><path fill="#3188C8" d="M34.1 48.1c-.6 9.3-8.2 19.2-17 22.2-2.9 1-5.6 1-7.8.4-4.5-1.3-7.4-5.7-6.9-12 .6-9.3 8.2-19.2 17-22.2 2.9-1 5.6-1 7.8-.4 4.5 1.4 7.3 5.8 6.9 12z"/><g fill="#146BB4"><path d="M22.8 60.3c-3.1-3.8-4.7-9.7-5.9-15.1-.4-2.5-.5-5-.3-7.5C9 41.6 2.9 50.3 2.4 58.6c-.4 6.2 2.4 10.6 6.9 12 2.2.7 4.9.6 7.8-.4 3.2-1.1 6.3-3.1 8.9-5.7-1.3-1.5-2.1-2.4-3.1-4"/><path d="M19.8 58c.1-1.2-.7-1.6-1.7-2-.3-.1-.7-.2-1.1-.3"/></g><path fill="#0D4C86" d="M2.9 59.2c.6-9.3 8.2-19.2 17-22.2 2.9-1 5.6-1 7.8-.4 1.4.4 2.6 1.1 3.6 2-1.1-1.2-2.5-2.1-4.2-2.6-2.2-.7-4.9-.6-7.8.4-8.7 3-16.3 12.9-16.9 22.2-.3 4.4 1 7.8 3.3 10-2-2.1-3-5.4-2.8-9.4z"/><g><path fill="#3188C8" d="M78.3 53.5c.2-.2.4-.5.6-.7.1-.1.2-.2.3-.4.1-.1.2-.3.3-.4.1-.1.1-.2.2-.2 1.7-2.5 2.8-5.6 3.2-9.3 0-.4.1-.7.1-1.1v-.2c0-.4 0-.7.1-1.1V40v-1-.2-1.1-.1-.2c0-.3 0-.5-.1-.8v-.3c0-.3-.1-.6-.1-.9v-.1c0-.3-.1-.7-.1-1V34c0-.3-.1-.5-.1-.8v-.3c-.1-.3-.1-.7-.2-1v-.1c-.1-.3-.1-.6-.2-.8 0-.1 0-.2-.1-.3-.1-.3-.1-.5-.2-.8 0-.1 0-.1-.1-.2-.1-.3-.2-.6-.3-1 0-.1 0-.2-.1-.2-.1-.3-.2-.5-.3-.8 0-.1-.1-.2-.1-.3l-.3-.9v-.1c-.1-.3-.3-.6-.4-1 0-.1-.1-.2-.1-.3-.1-.2-.2-.5-.3-.7 0-.1-.1-.2-.1-.3-.1-.3-.3-.6-.4-.9 0 0 0-.1-.1-.1-.1-.3-.3-.6-.4-.8 0-.1-.1-.2-.1-.3-.1-.2-.3-.5-.4-.7 0-.1-.1-.1-.1-.2-.2-.3-.3-.6-.5-.9 0-.1-.1-.1-.1-.2-.1-.2-.3-.5-.4-.7-.1-.1-.1-.2-.2-.3-.2-.3-.3-.5-.5-.7l-.1-.1c-.2-.2-.3-.5-.5-.7 0 0 0-.1-.1-.1-.1-.1-.2-.3-.3-.4-.1-.2-.2-.3-.4-.5-.1-.1-.2-.3-.3-.4-.1-.2-.3-.3-.4-.5-.1-.1-.2-.3-.3-.4-.1-.2-.3-.3-.4-.5-.1-.1-.2-.3-.3-.4-.1-.2-.3-.3-.4-.5-.1-.1-.2-.3-.3-.4l-.4-.4-.4-.4-.4-.4-.4-.4-.4-.4c-.1-.1-.2-.2-.4-.3l-.4-.4c-.1-.1-.3-.2-.4-.3-.2-.1-.3-.3-.5-.4-.1-.1-.3-.2-.4-.3-.2-.1-.3-.2-.5-.4-.1-.1-.3-.2-.4-.3-.2-.1-.3-.2-.5-.4-.1-.1-.3-.2-.4-.3-.2-.1-.3-.2-.5-.3-.2.1-.3 0-.4 0-.2-.1-.4-.2-.5-.3-.1-.1-.2-.1-.3-.2-.2-.1-.4-.2-.6-.4-.1-.1-.2-.1-.3-.2-.3-.2-.6-.3-.9-.5-.2-.1-.5-.2-.7-.3-.1 0-.1-.1-.2-.1-.2-.1-.4-.2-.5-.2-.1 0-.1-.1-.2-.1-.2-.1-.5-.2-.7-.3h-.1c-.2-.1-.4-.1-.6-.2-.1 0-.1 0-.2-.1-.2-.1-.4-.1-.6-.2h-.2c-.2-.1-.5-.1-.7-.2h-.2c-.2 0-.4-.1-.5-.1h-.2c-.2 0-.4-.1-.6-.1h-.1c-.2 0-.5-.1-.7-.1h-.2c-.2 0-.3 0-.5-.1h-.2c-.4-.3-.6-.3-.8-.3H52.6h-.1c-.2 0-.4 0-.5.1h-.2c-.2 0-.3 0-.5.1h-.1c-.2 0-.4.1-.6.1h-.1c-.2 0-.3.1-.4.1h-.2c-.1 0-.3.1-.4.1-.1 0-.1 0-.2.1-.2 0-.3.1-.5.1h-.1c-.2.1-.4.1-.5.2 0 0-.1 0-.1.1-.1.1-.3.1-.4.2-.1 0-.1.1-.2.1-.1.1-.2.1-.4.2-.1 0-.1.1-.2.1-.2.1-.3.2-.5.3L43 7.7l-2.8 1.6c-1.6.9-3 2.1-4.2 3.5 1.6-4.9 4.6-8.6 8.5-10.7l-6.3 3.5c-5.1 2.9-8.8 8.5-9.7 16.2-.1.4-.1.9-.1 1.3v.1c0 .4 0 .9-.1 1.3v3.1c0 .4 0 .7.1 1.1v.2c0 .3.1.7.1 1v.1c0 .4.1.7.2 1.1v.2c.1.4.1.7.2 1.1v.2c.1.3.1.7.2 1v.1c.1.4.2.7.3 1.1 0 .1 0 .2.1.2.1.4.2.7.3 1.1v.2c.1.3.2.7.3 1v.2c.1.4.2.7.4 1.1 0 .1.1.1.1.2.1.4.3.7.4 1.1 0 0 0 .1.1.1.1.3.3.7.4 1 0 .1 0 .1.1.2.1.4.3.7.5 1.1 0 .1.1.1.1.2.2.4.3.7.5 1.1 0 0 0 .1.1.1.2.3.3.7.5 1 0 .1.1.1.1.2.2.3.4.7.5 1 0 .1.1.1.1.2.2.3.4.7.6 1 0 0 0 .1.1.1l.6.9c0 .1.1.1.1.2.2.3.4.6.6 1 0 .1.1.1.1.2.2.3.4.6.7 1 0 0 0 .1.1.1.2.3.4.6.7.9 0 .1.1.1.1.2.2.3.5.6.7.9 0 .1.1.1.1.2.2.3.5.6.7.9l.1.1c.2.3.5.6.7.8l.1.1c.3.3.5.6.8.8l.2.2c.3.3.5.6.8.8h.1l.8.8.1.1c.3.3.6.5.8.7.1 0 .1.1.2.1.3.2.6.5.9.7.3.2.6.5.9.7.1 0 .1.1.2.1l.9.6c.1 0 .1.1.2.1l.9.6.9.6s.1 0 .1.1h.1c.3.2.6.4.9.5.1 0 .1.1.2.1.3.2.7.4 1 .5 1.6.8 3.1 1.4 4.7 1.8.4.1.9.2 1.3.3 1.7.4 3.4.6 5 .6.8 0 1.6-.1 2.4-.2.4-.1.8-.1 1.2-.2.8-.2 1.5-.4 2.2-.6.2-.1.4-.1.5-.2.7-.3 1.4-.6 2-1l6.3-3.5c-3.8 2.1-8.5 2.7-13.5 1.5l1.5-.3c.3-.1.6-.2 1-.3l.9-.3c.2-.1.3-.1.5-.2.5-.2.9-.4 1.3-.6l2.8-1.6 3.5-1.9c.2-.1.3-.2.5-.3.1-.1.2-.1.3-.2.2-.2.5-.3.7-.5 0 0 .1 0 .1-.1.1-.1.3-.2.4-.3l.3-.3c.1-.1.2-.1.2-.2.2-.1.3-.3.5-.4l.2-.2c0 .3.2.1.4-.1zm-23-32.3l2.8-1.5-.4 2.8c.1.1.2.1.3.2l-4.4 2.4h-.1s-.1 0-.1.1c0-.1-.1-.2-.1-.3v-.1c-.1-.2-.1-.4-.1-.6 0-.2-.1-.4-.1-.6v-.1c0-.2 0-.4-.1-.6v-.1-.3-.2-.3-.2-.3-.2-.5c0-.2.1-.4.1-.6.1 0 .2.1.3.1h.1c.3.1.5.2.8.3h.1c.3.4.6.5.9.6zm1.5 23.2l4.7-2.6.3-.3v.1c.1.2.1.4.1.6v.1c0 .2.1.4.1.6 0 .2 0 .4.1.6V45.3c0 .3-.1.7-.2 1 0 .1 0 .1-.1.2-.7-.1-1.4-.3-2.1-.6L57 47.5l.4-2.8-.6-.3zm.8 11.6c-.4-.2-.7-.4-1.1-.6-.1-.1-.2-.1-.3-.2-.2-.1-.5-.3-.7-.4-.1-.1-.3-.2-.4-.2-.2-.1-.4-.3-.7-.4-.1-.1-.2-.2-.4-.3-.2-.2-.5-.3-.7-.5-.1-.1-.2-.1-.3-.2-.3-.2-.7-.5-1-.8l-.1-.1c-.3-.2-.6-.5-.9-.7l-.3-.3-.1-.1 2.3 1.3 4.2-2.3c.9 0 1.8-.2 2.5-.6l6.3-3.5c.1 0 .1-.1.2-.1 0 0 .1 0 .1-.1l.1-.1c.1-.1.2-.1.2-.2l.6-.6c.2-.2.3-.4.4-.6 0-.1.1-.1.1-.2 0 0 0-.1.1-.1.1-.3.3-.6.4-.9 0-.2.1-.3.1-.5.1-.3.1-.6.2-1v-.4-.1-.3-.2-.3-.2-.2-.1-.1c0-.2 0-.4-.1-.6 0-.2-.1-.4-.1-.6v-.1c0-.2-.1-.4-.1-.6v-.1c-.1-.2-.1-.4-.2-.6v-.1c-.1-.2-.1-.4-.2-.6v-.1c-.1-.2-.2-.4-.2-.6 0-.1-.1-.2-.1-.3 0-.1-.1-.1-.1-.2s-.1-.1-.1-.2c-.1-.1-.1-.2-.2-.4 0-.1-.1-.1-.1-.2-.1-.1-.2-.3-.3-.4 0 0 0-.1-.1-.1-.1-.2-.2-.4-.3-.5 0-.1-.1-.1-.1-.2-.1-.1-.2-.2-.3-.4 0-.1-.1-.1-.1-.2-.1-.1-.2-.2-.2-.3 0-.1-.1-.1-.1-.2l-.3-.3c0-.1-.1-.1-.1-.2-.1-.1-.2-.3-.3-.4l-.1-.1c-.1-.2-.3-.3-.4-.5v-.1l4.1-2.3 1.2-5.9c-1.7-1.3-3.6-2.8-5.4-3.9l.6-3.6-2.3-1.3-4.6 2.5h-.3-.1c-.2 0-.5 0-.7.1h-.1c-.1 0-.2 0-.3.1h-.1c-.1 0-.2 0-.2.1h-.1c-.1 0-.2.1-.3.1-.1 0-.2.1-.2.1h-.1l-4.6 2.5-1.7.9c-1.2.6-1.9 1.9-2.1 3.8V26c0 .2 0 .4.1.6v.1c0 .2.1.4.1.6 0 .2.1.4.1.6v.1c.1.2.1.4.2.6v.1c.1.2.1.4.2.6v.1c.1.2.1.4.2.6v.1c.1.2.2.4.3.5.1.2.2.4.3.5v.1c.1.2.2.3.3.5 0 0 0 .1.1.1.1.2.2.3.3.5v.1c.1.2.2.3.3.5.1.2.2.3.4.5v.1c.1.2.2.3.4.5 0 0 0 .1.1.1L46 36.5l-1.3 6.1v.1l.1.1v.1l.1.1s0 .1.1.1l.1.1.1.1.1.1.1.1.2.2.1.1.2.2.2.2.2.2.2.2c.1.1.2.1.2.2l.2.2c.1.1.2.1.3.2.1.1.2.1.2.2.1.1.2.1.3.2.1.1.2.1.3.2.1.1.2.2.3.2.1.1.2.1.3.2.1.1.2.2.3.2.1.1.2.1.3.2.1.1.2.2.3.2.1.1.2.1.3.2.1.1.2.2.4.2.1.1.2.1.3.2.1 0 .1.1.2.1.1.1.3.2.4.3l-.5 3c-.2-.1-.3-.3-.5-.4l-.3-.3-.6-.6-.3-.3c-.2-.2-.4-.4-.6-.7l-.3-.3c-.3-.3-.6-.6-.8-1l-.1-.1c-.2-.3-.5-.6-.7-.8l-.3-.3c-.2-.2-.3-.5-.5-.7-.1-.1-.2-.3-.3-.4-.2-.2-.3-.5-.5-.7-.1-.1-.2-.3-.3-.4-.2-.3-.3-.5-.5-.8-.1-.1-.1-.2-.2-.3-.2-.4-.5-.7-.7-1.1 0-.1-.1-.1-.1-.2-.2-.3-.3-.6-.5-.9-.1-.1-.1-.3-.2-.4-.1-.3-.3-.5-.4-.8-.1-.1-.1-.3-.2-.4-.1-.3-.2-.5-.4-.8-.1-.1-.1-.3-.2-.4-.1-.3-.3-.6-.4-.9 0-.1-.1-.2-.1-.3-.2-.4-.3-.8-.5-1.2 0-.1-.1-.2-.1-.3l-.3-.9c0-.1-.1-.3-.1-.4-.1-.3-.2-.5-.3-.8 0-.2-.1-.3-.1-.5-.1-.3-.2-.5-.2-.8 0-.1-.1-.3-.1-.4-.1-.3-.2-.6-.2-.9 0-.1 0-.2-.1-.3l-.3-1.2c0-.1 0-.2-.1-.3-.1-.3-.1-.6-.2-.9 0-.1 0-.3-.1-.4 0-.3-.1-.5-.1-.8v-.5c0-.3 0-.5-.1-.8v-.4-.8-.5-.8-.5-.8-.4c0-.4.1-.8.1-1.3.2-2.1.7-4 1.4-5.8.3-.7.6-1.4.9-2 .5-.9 1.1-1.8 1.7-2.6.5-.6 1-1.1 1.5-1.7h.2c.1 0 .3-.1.4-.1h.1c.2 0 .4-.1.6-.1h.1c.2 0 .3 0 .5-.1h.2c.2 0 .4 0 .5-.1H48.1c.2 0 .4 0 .7.1h.2c.2 0 .3 0 .5.1h.2c.2 0 .5.1.7.1h.1c.2 0 .4.1.6.1h.2c.5.4.7.5.8.5h.2c.2.1.5.1.7.2h.2c.2.1.4.1.6.2.1 0 .1 0 .2.1.2.1.4.1.6.2h.1c.2.1.5.2.7.3.1 0 .1.1.2.1.2.1.4.2.5.2.1 0 .1.1.2.1.2.1.5.2.7.3.3.2.6.3.9.5.1.1.2.1.3.2.2.1.4.2.6.4.1.1.2.1.4.2s.4.2.5.3c.1.1.3.2.4.3.2.1.3.2.5.3.1.1.3.2.4.3.2.1.3.2.5.4.1.1.3.2.4.3.2.1.3.2.5.4.1.1.3.2.4.3.2.1.3.3.5.4.1.1.3.2.4.3l.4.4c.1.1.2.2.4.3l.4.4.4.4.4.4.4.4.4.4c.1.1.2.3.3.4.1.1.3.3.4.5.1.1.2.3.3.4.1.2.3.3.4.5.1.1.2.3.3.4.1.2.3.3.4.5.1.1.2.3.3.4.1.2.2.3.4.5.1.1.2.3.3.4.2.3.4.5.6.8l.1.1c.2.2.3.5.5.7.1.1.1.2.2.3.1.2.3.5.4.7 0 .1.1.1.1.2.2.3.3.6.5.9 0 .1.1.1.1.2.1.2.3.5.4.7 0 .1.1.2.1.3.1.3.3.5.4.8 0 0 0 .1.1.1.1.3.3.6.4.9 0 .1.1.2.1.3.1.2.2.5.3.7 0 .1.1.2.1.3.1.3.3.6.4 1v.1l.3.9c0 .1.1.2.1.3.1.3.2.5.3.8 0 .1.1.2.1.2.1.3.2.6.3 1 0 .1 0 .1.1.2.1.3.1.5.2.8 0 .1.1.2.1.3.1.3.1.6.2.8v.1c.1.3.1.7.2 1v.3c0 .3.1.5.1.8v.3c.1.3.1.7.1 1v.1c0 .3.1.6.1.9v.3c0 .3 0 .5.1.8v2.6c0 .4 0 .7-.1 1.1v.3c0 .4-.1.7-.1 1.1-.3 2.9-1.1 5.5-2.3 7.7v.1c-.3.5-.5 1-.8 1.4-.1.1-.2.3-.2.4-.1.1-.1.2-.2.2-.1.2-.3.4-.4.6-.1.1-.2.3-.3.4-.1.1-.2.3-.3.4-.1.2-.3.3-.4.4l-.3.3-.2.2c-4 .7-8.7.2-13.5-2.2z"/><path fill="#D97727" d="M40.1 9.3z"/><path fill="#146BB4" d="M63.4 61.8c-.1 0-.3-.1-.4-.1l1.5-.3c.3-.1.6-.2 1-.3l.9-.3c.2-.1.3-.1.5-.2.5-.2.9-.4 1.3-.6l2.8-1.6 3.5-1.9c.2-.1.3-.2.5-.3.1-.1.2-.1.3-.2.2-.2.5-.3.7-.5 0 0 .1 0 .1-.1.1-.1.3-.2.4-.3l.3-.3c.1-.1.2-.1.2-.2.2-.1.3-.3.5-.4l.2-.2.5-.5.1-.1c.2-.2.4-.5.6-.7.1-.1.2-.2.3-.4.1-.1.2-.3.3-.4.1-.1.1-.2.2-.2 1.7-2.5 2.8-5.6 3.2-9.3v-.1l-7.1-7.6c.1.2.1.4.1.6v.1c.1.3.1.7.2 1v.3c0 .3.1.5.1.8v.3c.1.3.1.7.1 1v.1c0 .3.1.6.1.9v.3c0 .3 0 .5.1.8v2.6c0 .4 0 .7-.1 1.1v.3c0 .4-.1.7-.1 1.1-.3 2.9-1.1 5.5-2.3 7.7v.1c-.3.5-.5 1-.8 1.4-.1.1-.2.3-.2.4-.1.1-.1.2-.2.2-.1.2-.3.4-.4.6-.1.1-.2.3-.3.4-.1.1-.2.3-.3.4-.1.2-.3.3-.4.4l-.3.3-.2.2c-4 1-8.7.5-13.5-1.9-.4-.2-.7-.4-1.1-.6-.1-.1-.2-.1-.3-.2-.2-.1-.5-.3-.7-.4-.1-.1-.3-.2-.4-.2-.2-.1-.4-.3-.7-.4-.1-.1-.2-.2-.4-.3-.2-.2-.5-.3-.7-.5-.1-.1-.2-.1-.3-.2-.3-.2-.7-.5-1-.8l-.1-.1c-.3-.2-.6-.5-.9-.7l-.3-.3-.1-.1 2.3 1.3 4.2-2.3c.9 0 1.8-.2 2.5-.6l6.3-3.5c.1 0 .1-.1.2-.1 0 0 .1 0 .1-.1l.1-.1c.1-.1.2-.1.2-.2l.6-.6c.2-.2.3-.4.4-.6 0-.1.1-.1.1-.2 0 0 0-.1.1-.1.1-.3.3-.6.4-.9 0-.2.1-.3.1-.5.1-.3.1-.6.2-1v-.4-.1-.3-.2-.3-.2-.2-.1-.1c0-.2 0-.4-.1-.6 0-.2-.1-.4-.1-.6v-.1c0-.2-.1-.4-.1-.6V38c-.1-.2-.1-.4-.2-.6v-.1c-.1-.2-.1-.4-.2-.6v-.1c-.1-.2-.2-.4-.2-.6 0-.1-.1-.2-.1-.3 0-.1-.1-.1-.1-.2s-.1-.1-.1-.2c-.1-.1-.1-.2-.2-.4 0-.1-.1-.1-.1-.2-.1-.1-.2-.3-.3-.4 0 0 0-.1-.1-.1-.1-.2-.2-.4-.3-.5 0-.1-.1-.1-.1-.2-.1-.1-.2-.2-.3-.4 0-.1-.1-.1-.1-.2-.1-.1-.2-.2-.2-.3 0-.1-.1-.1-.1-.2l-.3-.3c0-.1-.1-.1-.1-.2-.1-.1-.2-.3-.3-.4l-.1-.1c-.1-.2-.3-.3-.4-.5v-.1l4.1-2.3.4-2-10-10.8-1 .5h-.3-.1c-.2 0-.5 0-.7.1h-.1c-.1 0-.2 0-.3.1h-.1c-.1 0-.2 0-.2.1h-.1c-.1 0-.2.1-.3.1-.1 0-.2.1-.2.1H55l-4.6 2.5-1.7.9c-1.2.6-1.9 1.9-2.1 3.8v2.2c0 .2 0 .4.1.6v.1c0 .2.1.4.1.6 0 .2.1.4.1.6v.1c.1.2.1.4.2.6v.1c.1.2.1.4.2.6v.1c.1.2.1.4.2.6v.1c.1.2.2.4.3.5.1.2.2.4.3.5v.1c.1.2.2.3.3.5 0 0 0 .1.1.1.1.2.2.3.3.5v.1c.1.2.2.3.3.5.1.2.2.3.4.5v.1c.1.2.2.3.4.5 0 0 0 .1.1.1l-4.3 2.4-1.3 6.1v.1l.1.1v.1l.1.1s0 .1.1.1l.1.1.1.1.1.1.1.1.2.2.1.1.2.2.2.2.2.2.2.2c.1.1.2.1.2.2l.2.2c.1.1.2.1.3.2.1.1.2.1.2.2.1.1.2.1.3.2.1.1.2.1.3.2.1.1.2.2.3.2.1.1.2.1.3.2.1.1.2.2.3.2.1.1.2.1.3.2.1.1.2.2.3.2.1.1.2.1.3.2.1.1.2.2.4.2.1.1.2.1.3.2.1 0 .1.1.2.1.1.1.3.2.4.3l-.5 3c-.2-.1-.3-.3-.5-.4l-.3-.3-.6-.6-.3-.3c-.2-.2-.4-.4-.6-.7l-.3-.3c-.3-.3-.6-.6-.8-1l-.1-.1c-.2-.3-.5-.6-.7-.8l-.3-.3c-.2-.2-.3-.5-.5-.7-.1-.1-.2-.3-.3-.4-.2-.2-.3-.5-.5-.7-.1-.1-.2-.3-.3-.4-.2-.3-.3-.5-.5-.8-.1-.1-.1-.2-.2-.3-.2-.4-.5-.7-.7-1.1 0-.1-.1-.1-.1-.2-.2-.3-.3-.6-.5-.9-.1-.1-.1-.3-.2-.4-.1-.3-.3-.5-.4-.8-.1-.1-.1-.3-.2-.4-.1-.3-.2-.5-.4-.8-.1-.1-.1-.3-.2-.4-.1-.3-.3-.6-.4-.9 0-.1-.1-.2-.1-.3-.2-.4-.3-.8-.5-1.2 0-.1-.1-.2-.1-.3l-.3-.9c0-.1-.1-.3-.1-.4-.1-.3-.2-.5-.3-.8 0-.2-.1-.3-.1-.5-.1-.3-.2-.5-.2-.8 0-.1-.1-.3-.1-.4-.1-.3-.2-.6-.2-.9 0-.1 0-.2-.1-.3l-.3-1.2c0-.1 0-.2-.1-.3-.1-.3-.1-.6-.2-.9 0-.1 0-.3-.1-.4 0-.3-.1-.5-.1-.8V26c0-.3 0-.5-.1-.8v-.4-.8-.5-.8-.5-.8-.4c0-.4.1-.8.1-1.3.2-2.1.7-4 1.4-5.8.3-.7.6-1.4.9-2 .5-.9 1.1-1.8 1.7-2.6.5-.6 1-1.1 1.5-1.7h.2c.1 0 .3-.1.4-.1h.1c.2 0 .4-.1.6-.1h.1c.2 0 .3 0 .5-.1h.2c.2 0 .4 0 .5-.1H47.8c.2 0 .4 0 .7.1h.2c.2 0 .3 0 .5.1h.2c.2 0 .5.1.7.1L48.2 5s-.1 0-.1.1c-.1.1-.3.1-.4.2-.1 0-.1.1-.2.1-.1.1-.2.1-.4.2-.1 0-.1.1-.2.1-.2.1-.3.2-.5.3L43 7.7l-2.8 1.6c-.6.3-1.2.7-1.7 1.1-.3.2-.5.4-.8.6-.6.5-1.2 1.1-1.7 1.8.1-.2.1-.3.2-.4-2.5 2.2-4.9 4.5-7.2 6.8-.2.9-.3 1.8-.4 2.7-.1.4-.1.9-.1 1.3v.1c0 .4 0 .9-.1 1.3v3.1c0 .4 0 .7.1 1.1v.2c0 .3.1.7.1 1v.1c0 .4.1.7.2 1.1v.2c.1.4.1.7.2 1.1v.2c.1.3.1.7.2 1v.1c.1.4.2.7.3 1.1 0 .1 0 .2.1.2.1.4.2.7.3 1.1v.2c.1.3.2.7.3 1v.2c.1.4.2.7.4 1.1 0 .1.1.1.1.2.1.4.3.7.4 1.1 0 0 0 .1.1.1.1.3.3.7.4 1 0 .1 0 .1.1.2.1.4.3.7.5 1.1 0 .1.1.1.1.2.2.4.3.7.5 1.1 0 0 0 .1.1.1.2.3.3.7.5 1 0 .1.1.1.1.2.2.3.4.7.5 1 0 .1.1.1.1.2.2.3.4.7.6 1 0 0 0 .1.1.1l.6.9c0 .1.1.1.1.2.2.3.4.6.6 1 0 .1.1.1.1.2.2.3.4.6.7 1 0 0 0 .1.1.1.2.3.4.6.7.9 0 .1.1.1.1.2.2.3.5.6.7.9 0 .1.1.1.1.2.2.3.5.6.7.9l.1.1c.2.3.5.6.7.8l.1.1c.3.3.5.6.8.8l.2.2c.3.3.5.6.8.8h.1l.8.8.1.1c.3.3.6.5.8.7.1 0 .1.1.2.1.3.2.6.5.9.7.3.2.6.5.9.7.1 0 .1.1.2.1l.9.6c.1 0 .1.1.2.1l.9.6.9.6s.1 0 .1.1h.1c.3.2.6.4.9.5.1 0 .1.1.2.1.3.2.7.4 1 .5.3.1.6.3.8.4 3.3-.3 6.6-.7 9.9-1.3.4 0 .9-.1 1.5-.2zm-1.6-20.3c0 .1 0 .1 0 0 .1.3.1.5.2.7v.1c0 .2.1.4.1.6 0 .2 0 .4.1.6V45.3c0 .3-.1.7-.2 1 0 .1 0 .1-.1.2-.7-.1-1.4-.3-2.1-.6L57 47.5l.4-2.8-.6-.3 4.7-2.6.3-.3zM53 22.1v-.2-.3-.2-.5c0-.2.1-.4.1-.6.1 0 .2.1.3.1h.1c.3.1.5.2.8.3h.1c.3.1.6.2.9.4l2.8-1.5-.4 2.8c.1.1.2.1.3.2L53.6 25h-.1s-.1 0-.1.1c0-.1-.1-.2-.1-.3v-.1c-.1-.2-.1-.4-.1-.6 0-.2-.1-.4-.1-.6v-.1c0-.2 0-.4-.1-.6v-.1-.3-.2-.1z"/><path fill="#0055A6" d="M83 41.3v-.2c0-.4 0-.7.1-1.1v-.1-1-.2-1.1-.1-.2c0-.3 0-.5-.1-.8v-.3c0-.3-.1-.6-.1-.9v-.1c0-.3-.1-.7-.1-1v-.3c0-.3-.1-.5-.1-.8v-.3c-.1-.3-.1-.7-.2-1v-.1c-.1-.3-.1-.6-.2-.8 0-.1 0-.2-.1-.3-.1-.3-.1-.5-.2-.8 0-.1 0-.1-.1-.2-.1-.3-.2-.6-.3-1 0-.1 0-.2-.1-.2-.1-.3-.2-.5-.3-.8 0-.1-.1-.2-.1-.3l-.3-.9v-.1c-.1-.3-.3-.6-.4-1 0-.1-.1-.2-.1-.3-.1-.2-.2-.5-.3-.7 0-.1-.1-.2-.1-.3-.1-.3-.3-.6-.4-.9 0 0 0-.1-.1-.1-.1-.3-.3-.6-.4-.8 0-.1-.1-.2-.1-.3-.1-.2-.3-.5-.4-.7 0-.1-.1-.1-.1-.2-.2-.3-.3-.6-.5-.9 0-.1-.1-.1-.1-.2-.1-.2-.3-.5-.4-.7-.1-.1-.1-.2-.2-.3-.2-.3-.3-.5-.5-.7l-.1-.1c-.2-.2-.3-.5-.5-.7 0 0 0-.1-.1-.1-.1-.1-.2-.3-.3-.4-.1-.2-.2-.3-.4-.5-.1-.1-.2-.3-.3-.4-.1-.2-.3-.3-.4-.5-.1-.1-.2-.3-.3-.4-.1-.2-.3-.3-.4-.5-.1-.1-.2-.3-.3-.4-.1-.2-.3-.3-.4-.5-.1-.1-.2-.3-.3-.4l-.4-.4-.4-.4-.4-.4-.4-.4-.4-.4c-.1-.1-.2-.2-.3-.2-2.2 1-4.4 2.1-6.6 3.2.1.1.2.1.2.2.1.1.2.2.4.3l.4.4.4.4.4.4.4.4.4.4c.1.1.2.3.3.4.1.1.3.3.4.5.1.1.2.3.3.4.1.2.3.3.4.5.1.1.2.3.3.4.1.2.3.3.4.5.1.1.2.3.3.4.1.2.2.3.4.5.1.1.2.3.3.4.2.3.4.5.6.8l.1.1c.2.2.3.5.5.7.1.1.1.2.2.3.1.2.3.5.4.7 0 .1.1.1.1.2.2.3.3.6.5.9 0 .1.1.1.1.2.1.2.3.5.4.7 0 .1.1.2.1.3.1.3.3.5.4.8 0 0 0 .1.1.1.1.3.3.6.4.9 0 .1.1.2.1.3.1.2.2.5.3.7 0 .1.1.2.1.3.1.3.3.6.4 1v.1l.3.9c0 .1.1.2.1.3.1.3.2.5.3.8 0 .1.1.2.1.2.1.3.2.6.3 1 0 .1 0 .1.1.2.1.3.1.5.2.8 0 .1.1.2.1.3.1.3.1.6.2.8v.1c.1.3.1.7.2 1v.3c0 .3.1.5.1.8v.3c.1.3.1.7.1 1v.1c0 .3.1.6.1.9v.3c0 .3 0 .5.1.8v2.6c0 .4 0 .7-.1 1.1v.3c0 .4-.1.7-.1 1.1-.3 2.9-1.1 5.5-2.3 7.7v.1c-.3.5-.5 1-.8 1.4-.1.1-.2.3-.2.4-.1.1-.1.2-.2.2-.1.2-.3.4-.4.6-.1.1-.2.3-.3.4-.1.1-.2.3-.3.4-.1.2-.3.3-.4.4l-.3.3-.2.2c-4 1-8.7.5-13.5-1.9-.4-.2-.7-.4-1.1-.6-.1-.1-.2-.1-.3-.2-.2-.1-.5-.3-.7-.4-.1-.1-.3-.2-.4-.2-.2-.1-.4-.3-.7-.4-.1-.1-.2-.2-.4-.3-.2-.2-.5-.3-.7-.5-.1-.1-.2-.1-.3-.2-.3-.2-.7-.5-1-.8l-.1-.1c-.3-.2-.6-.5-.9-.7l-.3-.3-.1-.1 2.3 1.3 4.2-2.3c.9 0 1.8-.2 2.5-.6l6.3-3.5c.1 0 .1-.1.2-.1 0 0 .1 0 .1-.1l.1-.1c.1-.1.2-.1.2-.2l.6-.6c.2-.2.3-.4.4-.6 0-.1.1-.1.1-.2 0 0 0-.1.1-.1.1-.3.3-.6.4-.9 0-.2.1-.3.1-.5.1-.3.1-.6.2-1v-.4-.1-.3-.2-.3-.2-.2-.1-.1c0-.2 0-.4-.1-.6 0-.2-.1-.4-.1-.6v-.1c0-.2-.1-.4-.1-.6v-.1c-.1-.2-.1-.4-.2-.6v-.1c-.1-.2-.1-.4-.2-.6v-.1c-.1-.2-.2-.4-.2-.6 0-.1-.1-.2-.1-.3 0-.1-.1-.1-.1-.2s-.1-.1-.1-.2c-.1-.1-.1-.2-.2-.4 0-.1-.1-.1-.1-.2-.1-.1-.2-.3-.3-.4 0 0 0-.1-.1-.1-.1-.2-.2-.4-.3-.5 0-.1-.1-.1-.1-.2-.1-.1-.2-.2-.3-.4 0-.1-.1-.1-.1-.2-.1-.1-.2-.2-.2-.3 0-.1-.1-.1-.1-.2l-.3-.3c0-.1-.1-.1-.1-.2-.1-.1-.2-.3-.3-.4l-.1-.1c-.1-.2-.3-.3-.4-.5v-.1l4.1-2.3 1.2-5.9c-1.7-1.3-3.6-2.8-5.4-3.9l.6-3.6-1.1-.6c-5.5 2.7-11 5.6-16.4 8.7-.1.3-.2.7-.2 1v2.2c0 .2 0 .4.1.6v.1c0 .2.1.4.1.6 0 .2.1.4.1.6v.1c.1.2.1.4.2.6v.1c.1.2.1.4.2.6v.1c.1.2.1.4.2.6v.1c.1.2.2.4.3.5.1.2.2.4.3.5v.1c.1.2.2.3.3.5 0 0 0 .1.1.1.1.2.2.3.3.5v.1c.1.2.2.3.3.5.1.2.2.3.4.5v.1c.1.2.2.3.4.5 0 0 0 .1.1.1l-4.3 2.4-1.3 6.1v.1l.1.1v.1l.1.1s0 .1.1.1l.1.1.1.1.1.1.1.1.2.2.1.1.2.2.2.2.2.2.2.2c.1.1.2.1.2.2l.2.2c.1.1.2.1.3.2.1.1.2.1.2.2.1.1.2.1.3.2.1.1.2.1.3.2.1.1.2.2.3.2.1.1.2.1.3.2.1.1.2.2.3.2.1.1.2.1.3.2.1.1.2.2.3.2.1.1.2.1.3.2.1.1.2.2.4.2.1.1.2.1.3.2.1 0 .1.1.2.1.1.1.3.2.4.3l-.5 3c-.2-.1-.3-.3-.5-.4l-.3-.3-.6-.6-.3-.3c-.2-.2-.4-.4-.6-.7l-.3-.3c-.3-.3-.6-.6-.8-1l-.1-.1c-.2-.3-.5-.6-.7-.8l-.3-.3c-.2-.2-.3-.5-.5-.7-.1-.1-.2-.3-.3-.4-.2-.2-.3-.5-.5-.7-.1-.1-.2-.3-.3-.4-.2-.3-.3-.5-.5-.8-.1-.1-.1-.2-.2-.3-.2-.4-.5-.7-.7-1.1 0-.1-.1-.1-.1-.2-.2-.3-.3-.6-.5-.9-.1-.1-.1-.3-.2-.4-.1-.3-.3-.5-.4-.8-.1-.1-.1-.3-.2-.4-.1-.3-.2-.5-.4-.8-.1-.1-.1-.3-.2-.4-.1-.3-.3-.6-.4-.9 0-.1-.1-.2-.1-.3-.2-.4-.3-.8-.5-1.2 0-.1-.1-.2-.1-.3l-.3-.9c0-.1-.1-.3-.1-.4-.1-.3-.2-.5-.3-.8 0-.2-.1-.3-.1-.5-.1-.3-.2-.5-.2-.8 0-.1-.1-.3-.1-.4-.1-.3-.2-.6-.2-.9 0-.1 0-.2-.1-.3l-.3-1.2c0-.1 0-.2-.1-.3 0-.1 0-.3-.1-.4-3 1.8-6 3.7-9 5.6.1.3.1.5.2.8 0 .1 0 .2.1.2.1.4.2.7.3 1.1v.2c.1.3.2.7.3 1v.2c.1.4.2.7.4 1.1 0 .1.1.1.1.2.1.4.3.7.4 1.1 0 0 0 .1.1.1.1.3.3.7.4 1 0 .1 0 .1.1.2.1.4.3.7.5 1.1 0 .1.1.1.1.2.2.4.3.7.5 1.1 0 0 0 .1.1.1.2.3.3.7.5 1 0 .1.1.1.1.2.2.3.4.7.5 1 0 .1.1.1.1.2.2.3.4.7.6 1 0 0 0 .1.1.1l.6.9c0 .1.1.1.1.2.2.3.4.6.6 1 0 .1.1.1.1.2.2.3.4.6.7 1 0 0 0 .1.1.1.2.3.4.6.7.9 0 .1.1.1.1.2.2.3.5.6.7.9 0 .1.1.1.1.2.2.3.5.6.7.9l.1.1c.2.3.5.6.7.8l.1.1c.3.3.5.6.8.8l.2.2c.3.3.5.6.8.8h.1l.8.8.1.1c.3.3.6.5.8.7.1 0 .1.1.2.1.3.2.6.5.9.7.3.2.6.5.9.7.1 0 .1.1.2.1l.9.6c.1 0 .1.1.2.1l.9.6.9.6s.1 0 .1.1h.1c.3.2.6.4.9.5.1 0 .1.1.2.1.3.2.7.4 1 .5 1.6.8 3.1 1.4 4.7 1.8.4.1.9.2 1.3.3 1.7.4 3.4.6 5 .6.8 0 1.6-.1 2.4-.2.4-.1.8-.1 1.2-.2.8-.2 1.5-.4 2.2-.6.2-.1.4-.1.5-.2.7-.3 1.4-.6 2-1l6.3-3.5c-3.8 2.1-8.5 2.7-13.5 1.5l1.5-.3c.3-.1.6-.2 1-.3l.9-.3c.2-.1.3-.1.5-.2.5-.2.9-.4 1.3-.6l2.8-1.6 3.5-1.9c.2-.1.3-.2.5-.3.1-.1.2-.1.3-.2.2-.2.5-.3.7-.5 0 0 .1 0 .1-.1.1-.1.3-.2.4-.3l.3-.3c.1-.1.2-.1.2-.2.2-.1.3-.3.5-.4l.2-.2.5-.5.1-.1c.2-.2.4-.5.6-.7.1-.1.2-.2.3-.4.1-.1.2-.3.3-.4.1-.1.1-.2.2-.2 1.7-2.5 2.8-5.6 3.2-9.3-.2 0-.2-.3-.2-.7z"/><path fill="#56B9E9" d="M63.3 6.4c12.4 6.2 21.2 22.3 19.6 36C81.4 56.1 70 62.2 57.6 56 45.2 49.8 36.4 33.7 38 20 39.5 6.3 50.9.2 63.3 6.4z"/><path fill="#48A4DB" d="M55.1 29c-3.6-2.4-7-5.1-9.9-8.3-2.1-2.3-3.9-4.9-5.3-7.8-.9 2-1.6 4.3-1.9 6.9-1.6 13.7 7.2 29.8 19.6 36 11.3 5.6 21.7 1.1 24.6-10-4.5-3.8-9.6-6.8-14.8-9.7-2.6-1.6-8-4.5-12.2-7.2"/><path fill="#0D4C86" d="M63.3 6.4C54 1.8 45.3 4 40.9 11.1c4.6-6.4 12.9-8.3 21.8-3.9 12.4 6.2 21.2 22.3 19.6 36-.4 3.5-1.4 6.4-2.9 8.8 1.8-2.6 3.1-5.8 3.5-9.7 1.6-13.6-7.2-29.7-19.6-35.9z"/><g><path fill="#FFF1B3" d="M63.7 2.8C77.9 9.9 88 28.3 86.2 44c-1.8 15.7-14.8 22.7-29 15.6S32.9 34 34.7 18.3c1.8-15.6 14.8-22.6 29-15.5zM57.6 56c12.4 6.2 23.7.1 25.3-13.6 1.6-13.7-7.2-29.8-19.6-36C50.9.2 39.5 6.3 38 20c-1.6 13.7 7.2 29.8 19.6 36z"/><path fill="#67CDF5" d="M68.1 62.1c-3.5 0-7.1-.9-10.7-2.7-14.1-7-24.1-25.4-22.3-40.9C36.4 7.5 43.4.4 52.9.4c3.5 0 7.1.9 10.7 2.7 14.1 7 24.1 25.4 22.3 40.9-1.3 11-8.3 18.1-17.8 18.1zM53.8 3.7c-8.7 0-15 6.4-16.1 16.3-1.6 13.7 7.3 30 19.8 36.2 3.3 1.6 6.5 2.5 9.6 2.5 8.7 0 15-6.4 16.1-16.3 1.6-13.8-7.3-30.1-19.8-36.3-3.2-1.6-6.5-2.4-9.6-2.4z"/></g><path fill="#48A4DB" d="M85.7 45.3c-.8-.8-1.7-1.5-2.6-2.3-1.3 9.5-7.6 15.6-16 15.6-3.1 0-6.4-.8-9.6-2.5C45 50 36.1 33.7 37.7 19.9c.4-3.7 1.6-7 3.4-9.6-.6-1.2-1.1-2.4-1.5-3.7-2.4 3-4 7-4.5 11.7-1.8 15.5 8.2 33.9 22.3 40.9 3.6 1.8 7.3 2.7 10.7 2.7 9.1.2 16-6.4 17.6-16.6z"/></g><path fill="#0D4C86" d="M57.5 65.2c-.4-.1-.9-.2-1.3-.3-1.5-.4-3.1-1.1-4.7-1.8-.3-.2-.7-.3-1-.5-.1 0-.1-.1-.2-.1-.3-.2-.6-.4-.9-.5h-.1s-.1 0-.1-.1l-.9-.6-.9-.6c-.1 0-.1-.1-.2-.1l-.9-.6c-.1 0-.1-.1-.2-.1-.3-.2-.6-.4-.9-.7-.3-.2-.6-.5-.9-.7-.1 0-.1-.1-.2-.1-.3-.2-.6-.5-.8-.7l-.1-.1-.8-.8h-.1l-.8-.8-.2-.2-.8-.8-.1-.1c-.2-.3-.5-.6-.7-.8l-.1-.1c-.3-.3-.5-.6-.7-.9 0-.1-.1-.1-.1-.2-.2-.3-.5-.6-.7-.9 0-.1-.1-.1-.1-.2-.2-.3-.4-.6-.7-.9 0 0 0-.1-.1-.1-.2-.3-.4-.6-.7-1 0-.1-.1-.1-.1-.2-.2-.3-.4-.6-.6-1 0-.1-.1-.1-.1-.2l-.6-.9s0-.1-.1-.1c-.2-.3-.4-.7-.6-1 0-.1-.1-.1-.1-.2-.2-.3-.4-.7-.5-1 0-.1-.1-.1-.1-.2-.2-.3-.3-.7-.5-1 0 0 0-.1-.1-.1-.2-.3-.3-.7-.5-1.1 0-.1-.1-.1-.1-.2-.2-.4-.3-.7-.5-1.1 0-.1 0-.1-.1-.2-.1-.3-.3-.7-.4-1 0 0 0-.1-.1-.1-.1-.4-.3-.7-.4-1.1 0-.1-.1-.1-.1-.2-.1-.4-.2-.7-.4-1.1v-.2c-.1-.3-.2-.7-.3-1v-.2c-.1-.4-.2-.7-.3-1.1 0-.1 0-.2-.1-.2-.1-.4-.2-.7-.3-1.1v-.1c-.1-.3-.1-.7-.2-1v-.2c-.1-.4-.1-.7-.2-1.1v-.2c-.1-.4-.1-.7-.2-1.1v-.1c0-.3-.1-.7-.1-1V29c0-.4-.1-.7-.1-1.1v-.1-.1-1.2-.2V25v-.2c0-.4 0-.9.1-1.3v-.1c0-.4.1-.9.1-1.3.9-7.8 4.5-13.4 9.7-16.2l3.2-1.8c.8-.7 1.6-1.2 2.5-1.7L38 5.9c-5.1 2.9-8.8 8.5-9.7 16.2-.1.4-.1.9-.1 1.3v.1c0 .4 0 .9-.1 1.3v3.1c0 .4 0 .7.1 1.1v.2c0 .3.1.7.1 1v.1c0 .4.1.7.2 1.1v.2c.1.4.1.7.2 1.1v.2c.1.3.1.7.2 1v.1c.1.4.2.7.3 1.1 0 .1 0 .2.1.2.1.4.2.7.3 1.1v.2c.1.3.2.7.3 1v.2c.1.4.2.7.4 1.1 0 .1.1.1.1.2.1.4.3.7.4 1.1 0 0 0 .1.1.1.1.3.3.7.4 1 0 .1 0 .1.1.2.1.4.3.7.5 1.1 0 .1.1.1.1.2.2.4.3.7.5 1.1 0 0 0 .1.1.1.2.3.3.7.5 1 0 .1.1.1.1.2.2.3.4.7.5 1 0 .1.1.1.1.2.2.3.4.7.6 1 0 0 0 .1.1.1l.6.9c0 .1.1.1.1.2.2.3.4.6.6 1 0 .1.1.1.1.2.2.3.4.6.7 1 0 0 0 .1.1.1.2.3.4.6.7.9 0 .1.1.1.1.2.2.3.5.6.7.9 0 .1.1.1.1.2.2.3.5.6.7.9l.1.1c.2.3.5.6.7.8l.1.1c.3.3.5.6.8.8l.2.2c.3.3.5.6.8.8h.1l.8.8.1.1c.3.3.6.5.8.7.1 0 .1.1.2.1.3.2.6.5.9.7.3.2.6.5.9.7.1 0 .1.1.2.1l.9.6c.1 0 .1.1.2.1l.9.6.9.6s.1 0 .1.1h.1c.3.2.6.4.9.5.1 0 .1.1.2.1.3.2.7.4 1 .5 1.6.8 3.1 1.4 4.7 1.8.4.1.9.2 1.3.3 1.7.4 3.4.6 5 .6h.2c-1.5 0-3-.2-4.6-.6z"/><g><defs><path id="ba" transform="scale(-1) rotate(22.081 152.907 -297.352)" d="M47.4 16.5h21.3v26.6H47.4z"/></defs></g><path fill="#0D4C86" d="M53.9 22.3l3.3 2.8 2.8.4v-5h9.8s.7-.7.1-.7-15-.2-15-.2l-1 2.7zM69.9 30.7l.4-.3.2-1.6-13.9-2.1-2.4-2.1-1.4 1.5-2.3 15 6.9 1.1 1.3-8.6s.6-3.4 3.9-2.9c1.4.2 2.7.4 3.7.5l.1 1.1s2.1.3 3.6-.6l-.1-1z"/><path fill="#BDE5F3" d="M55.3 22l3.3 2.8 2.8.4v-5h9.8s.7-.7.1-.7-15-.2-15-.2l-1 2.7zM71.4 30.4l.4-.3.2-1.6-13.9-2.1-2.4-2.1-1.4 1.5-2.3 15 6.9 1.1 1.3-8.6s.6-3.4 3.9-2.9c1.4.2 2.7.4 3.7.5L68 32s2.1.3 3.6-.6l-.2-1z"/><g><g fill="#0D4C86"><path d="M14.2 45.1l3.6.6c.1 0 .2.1.2.3v.5c0 .1-.1.2-.2.2l-3.6-.6c-.1 0-.2-.1-.2-.3l.1-.5c-.1-.1 0-.2.1-.2zM18.4 56.4c-1-.7-1.6-1.9-1.6-3.1 0-.1-.1-.2-.2-.2l-2.8-.5c-.1 0-.2.1-.2.2 0 1.1.8 1.7 1.2 2.3.7.8 1 2.1.3 4.4 0 .1 0 .3.1.3l1.9.3c.1 0 .2 0 .2-.1.6-.9.9-2.1 1.1-3.3.1-.2.1-.3 0-.3zM16.6 52.3l.6-3.5.4.1c.1 0 .2-.1.2-.2s-.1-.2-.2-.3l-.4-.1.2-.9c0-.1-.1-.2-.2-.3l-2.8-.5c-.1 0-.2.1-.2.2l-.8 4.9c0 .1.1.2.2.3l2.8.5.2-.2zM21.3 57.3c0-.1 0-.2-.2-.3h-.6l-.8-.1c-.2 0-.4-.1-.6-.2-.1 0-.2 0-.3.2-.2 1-.5 2-1 2.9-.1.1 0 .3.1.3h.1l3 .5c.1 0 .2-.1.2-.2v-.1c-.1-.9-.1-1.9.1-3zM24.8 53.2l-7.5-1.3c-.2 0-.3.1-.4.3s.1.4.2.4l7.5 1.3c.2 0 .3-.1.4-.3s0-.4-.2-.4z"/><path d="M23.9 54.2l-6.4-1.1c-.1 0-.2.1-.2.2v.1c0 1.5 1.1 2.8 2.6 3l.8.1c1.5.3 2.9-.6 3.4-2 0-.1-.1-.2-.2-.3z"/></g><g fill="#BDE5F3"><path d="M14.8 44.4l3.6.6c.1 0 .2.1.2.3l-.1.5c0 .1-.1.2-.2.2l-3.6-.6c-.1 0-.2-.1-.2-.3l.1-.5c0-.1.1-.2.2-.2zM19 55.6c-1-.7-1.6-1.9-1.6-3.1 0-.1-.1-.2-.2-.2l-2.8-.5c-.1 0-.2.1-.2.2 0 1.1.8 1.7 1.2 2.3.7.8 1 2.1.3 4.4 0 .1 0 .3.1.3l1.9.3c.1 0 .2 0 .2-.1.6-.9.9-2.1 1.1-3.3.1-.1.1-.2 0-.3zM17.2 51.5l.6-3.5.4.1c.1 0 .2-.1.2-.2s-.1-.2-.2-.3l-.4-.1.2-.9c0-.1-.1-.2-.2-.3l-2.8-.4c-.1 0-.2.1-.2.2l-.9 4.9c0 .1.1.2.2.3l2.8.5c.1 0 .2-.1.3-.3zM21.9 56.6c0-.1 0-.2-.2-.3h-.6l-.8-.1c-.2 0-.4-.1-.6-.2-.1 0-.2 0-.3.2-.2 1-.5 2-1 2.9-.1.1 0 .3.1.3h.1l3 .5c.1 0 .2-.1.2-.2v-.1c-.1-.9-.1-2 .1-3zM25.4 52.5l-7.5-1.3c-.2 0-.3.1-.4.3 0 .2.1.4.2.4l7.5 1.3c.2 0 .3-.1.4-.3.1-.2 0-.4-.2-.4z"/><path d="M24.5 53.5l-6.4-1.1c-.1 0-.2.1-.2.2v.1c0 1.5 1.1 2.8 2.6 3l.8.1c1.5.3 2.9-.6 3.4-2 0-.1-.1-.2-.2-.3z"/></g></g></symbol><symbol viewBox="-44.41 -44.41 305.83 444.13" id="marker" xmlns="http://www.w3.org/2000/svg"><title>Arrows-right - Light</title><path d="M109.1 0c60.3 0 109.1 48.9 109.1 109.1 0 94.3-109.1 248-109.1 248S0 208.3 0 109.1C0 48.9 48.9 0 109.1 0zm49.6 109.1c0-27.4-22.2-49.6-49.6-49.6s-49.6 22.2-49.6 49.6 22.2 49.6 49.6 49.6 49.6-22.2 49.6-49.6z"/></symbol><symbol viewBox="328.1 136.3 30 23.5" id="menu" xmlns="http://www.w3.org/2000/svg"><path d="M333.1 141.3h20v1h-20zM333.1 147.6h20v1h-20zM333.1 153.9h20v1h-20z"/></symbol><symbol viewBox="-59.62 -59.62 596.25 594.55" id="search" xmlns="http://www.w3.org/2000/svg"><title>se1</title><path d="M478.1 449.2L350.9 322.7c27.9-34.1 44.6-77.6 44.6-125v-1.1C394.9 87.4 306-.7 196.8-.2 87.6.3-.5 89.3 0 198.5c.5 109.2 89.5 197.3 198.7 196.8 47.7-.2 91.3-17.2 125.4-45.5l127.1 126.4 26.9-27zm-281.3-91.9c-88.1-.5-159.2-72.4-158.6-160.5.5-88.1 72.4-159.2 160.5-158.6 87.8.4 158.8 71.8 158.6 159.6v.9c-.5 88.1-72.4 159.1-160.5 158.6z"/></symbol><symbol viewBox="80.13 -11.58 678.75 623.75" id="shopping-cart" xmlns="http://www.w3.org/2000/svg"><path fill="none" d="M445.5 492.8c0 10.7 8.7 19.3 19.3 19.3s19.3-8.7 19.3-19.3-8.7-19.3-19.3-19.3-19.3 8.6-19.3 19.3zM242.4 492.8c0 10.7 8.7 19.3 19.3 19.3 10.7 0 19.3-8.7 19.3-19.3s-8.7-19.3-19.3-19.3c-10.6-.1-19.3 8.6-19.3 19.3zM180.9 176.5c-1.2 1.4-3 4.4-2.2 8.6l36.1 181.4c2.4 11.8 12.8 20.5 24.9 20.5h271.8l42.6-214.2H188.9c-4.3-.1-6.9 2.3-8 3.7z"/><path d="M675.6 58.1h-47.4c-29.7 0-55.4 21.1-61.2 50.2l-6.9 34.5H188.9c-12.1 0-23.5 5.4-31.2 14.8-7.7 9.4-10.8 21.6-8.4 33.5l36.1 181.4c5.2 25.8 28 44.6 54.4 44.6h265.8l-1.2 6.2c-2.3 11.8-12.7 20.3-24.7 20.3h-218c-27.2 0-49.3 22.1-49.3 49.3s22.1 49.3 49.3 49.3c27.2 0 49.3-22.1 49.3-49.3 0-6.9-1.4-13.4-3.9-19.3h112.3c-2.5 5.9-3.9 12.5-3.9 19.3 0 27.2 22.1 49.3 49.3 49.3s49.3-22.1 49.3-49.3c0-9.7-2.8-18.7-7.7-26.4 13.8-7.7 24.1-21.1 27.3-37.4l4.8-24.1L587 161.3c0-.1.1-.3.1-.4l9.3-46.5c3-15.1 16.3-26 31.7-26h47.4c8.3 0 15-6.7 15-15s-6.6-15.3-14.9-15.3zM281.1 492.8c0 10.7-8.7 19.3-19.3 19.3-10.7 0-19.3-8.7-19.3-19.3s8.7-19.3 19.3-19.3c10.6-.1 19.3 8.6 19.3 19.3zm183.7 19.3c-10.7 0-19.3-8.7-19.3-19.3s8.7-19.3 19.3-19.3 19.3 8.7 19.3 19.3-8.6 19.3-19.3 19.3zM511.6 387H239.8c-12.1 0-22.6-8.6-24.9-20.5l-36.1-181.4c-.8-4.2 1-7.2 2.2-8.6 1.2-1.4 3.7-3.8 8-3.8h365.3L511.6 387z"/></symbol><symbol viewBox="-53.67 -53.67 482.45 536.75" id="user" xmlns="http://www.w3.org/2000/svg"><path fill="none" d="M226 288.5c-.6-.9-1.2-1.9-1.8-3-2.8-4.7-5.5.4-7.5-10.4.2-.1.4-.1.6-.2 26.3-7.9 40.1-40.4 45.8-63.1l1.8-4.5c11-2.4 22.8-20.4 22.8-35.4 0-11.2-4.1-19.6-11.4-23.3.7-13 .4-24.7-.9-35.3-.1-1.4-.1-2.7-.2-4.2-.7-18.6-3.2-31-15-51.7-11.8-20.7-51.7-31-58.5-31h-28.6c-6.8 0-46.7 10.3-58.5 31s-14.3 33.2-15 51.7c0 1-.1 1.9-.1 2.8-1.8 11.4-1.8 23.6.1 36.2-7.9 3.4-12.4 11.9-12.4 23.8 0 15.6 12.4 33.9 23.6 35.6 4.9 22.7 18.7 59 46.8 67.4.2.1.4.1.6.2-2 10.9-4.7 5.7-7.5 10.4-.6 1.1-1.2 2-1.8 3C44.8 298 26.7 347.2 26.6 381.6c0 0 75.3 20.7 160.9 20.7 81.8 0 161-20.7 161-20.7-.3-34.3-18.4-83.5-122.5-93.1z"/><path d="M265.2 268.8c8.7-13.2 14.8-28.6 20.8-44 27.2-20 35.9-58 16.8-85.2.7-37-2.8-80-29.2-107.5C251.5 9.1 218.2 0 187.3 0c-29.9 0-62.1 8.5-84.3 29.9C76 56 69.7 100.6 72.2 137.5c-20.7 25.9-10.9 67 15.7 86.9 4.6 15.6 11.3 31.2 20.8 44.4C51.9 282.7 1.3 315 0 381.6c-.2 11.5 8.3 22.5 19.4 25.4 108.8 29.4 227 28 335.9 0 6.3-1.6 10.9-4.9 14-8.9 3.4-4.1 5.5-9.6 5.4-16.5-1.3-66.8-52.3-99.1-109.5-112.8zm-77.9 133.5c-85.7 0-160.9-20.7-160.9-20.7.1-34.3 18.2-83.5 122.3-93.1.6-.9 1.2-1.9 1.8-3 2.8-4.7 5.5.4 7.5-10.4-.2-.1-.4-.1-.6-.2-28-8.5-41.8-44.7-46.8-67.4-11.2-1.7-23.6-20-23.6-35.6 0-11.9 4.5-20.4 12.4-23.8-1.9-12.6-1.9-24.8-.1-36.2 0-.9.1-1.8.1-2.8.7-18.6 3.2-31 15-51.7 11.8-20.7 51.7-31 58.5-31h28.6c6.8 0 46.7 10.3 58.5 31 11.8 20.7 14.3 33.2 15 51.7.1 1.4.1 2.8.2 4.2 1.3 10.6 1.6 22.3.9 35.3 7.2 3.7 11.4 12.1 11.4 23.3 0 15.1-11.8 33-22.8 35.4l-1.8 4.5c-5.7 22.7-19.5 55.2-45.8 63.1-.2.1-.4.1-.6.2 2 10.9 4.7 5.7 7.5 10.4.6 1.1 1.2 2 1.8 3 104.1 9.5 122.2 58.7 122.3 93.1.2 0-78.9 20.7-160.8 20.7z"/></symbol></svg>